<?xml version="1.0" standalone="no"?>
<!DOCTYPE svg PUBLIC "-//W3C//DTD SVG 1.1//EN" "http://www.w3.org/Graphics/SVG/1.1/DTD/svg11.dtd" >
<svg xmlns="http://www.w3.org/2000/svg">
<metadata></metadata>
<defs>
<font id="FNBSansRegularBold" horiz-adv-x="1335" >
<font-face units-per-em="2048" ascent="1536" descent="-512" />
<missing-glyph horiz-adv-x="301" />
<glyph unicode="&#xfb01;" horiz-adv-x="1269" d="M55 965q0 63 18.5 88.5t69.5 25.5h74v70q0 185 118.5 286t315.5 101q221 0 367 -127q72 -65 -17 -154q-85 -82 -139 -26q-68 74 -190 74q-89 0 -128.5 -42t-39.5 -133v-49h493q78 0 111 -23.5t33 -86.5v-873q0 -63 -33 -86.5t-111 -23.5q-77 0 -110 23.5t-33 86.5v754 h-350v-754q0 -63 -33 -86.5t-111 -23.5q-77 0 -110 23.5t-33 86.5v754h-74q-51 0 -69.5 26t-18.5 89z" />
<glyph unicode="&#xfb02;" horiz-adv-x="1273" d="M55 965q0 63 18.5 88.5t69.5 25.5h74v95q0 173 130 272.5t323 99.5q122 0 228.5 -34.5t164.5 -69.5q45 -26 61.5 -57t16.5 -74v-1207q0 -63 -33 -86.5t-111 -23.5q-77 0 -110 23.5t-33 86.5v1162q-68 61 -205 61q-47 0 -78 -14t-44.5 -41t-18 -51t-4.5 -58v-84h121 q51 0 69.5 -25.5t18.5 -88.5t-18.5 -89t-69.5 -26h-121v-754q0 -63 -33 -86.5t-111 -23.5q-77 0 -110 23.5t-33 86.5v754h-74q-51 0 -69.5 26t-18.5 89z" />
<glyph horiz-adv-x="0" />
<glyph horiz-adv-x="2048" />
<glyph unicode=" "  horiz-adv-x="301" />
<glyph unicode="&#x09;" horiz-adv-x="301" />
<glyph unicode="&#xa0;" horiz-adv-x="301" />
<glyph unicode="!" horiz-adv-x="641" d="M186 1415q-3 58 29 80.5t104 22.5t104.5 -22.5t29.5 -80.5l-37 -891q-1 -44 -22.5 -61t-74.5 -17q-54 0 -75.5 16t-22.5 60zM190 86v92q0 52 30.5 72t96.5 20t96.5 -20t30.5 -72v-92q0 -52 -30.5 -72t-96.5 -20t-96.5 20t-30.5 72z" />
<glyph unicode="&#x22;" horiz-adv-x="946" d="M133 1417q-3 55 27 75.5t98 20.5q69 0 99.5 -20.5t27.5 -75.5l-35 -440q-2 -42 -21.5 -58t-70.5 -16t-71 15.5t-21 56.5zM563 1417q-3 55 27 75.5t98 20.5q69 0 99.5 -20.5t27.5 -75.5l-35 -440q-2 -42 -21.5 -58t-70.5 -16t-71 15.5t-21 56.5z" />
<glyph unicode="#" d="M51 537q10 62 29 82t65 20h156l51 244h-141q-44 0 -56 23t-3 81q10 63 29 83t65 20h157l76 331q10 44 22 62t38 25.5t84 7.5q67 0 87 -17t9 -67l-80 -342h221l70 329q14 63 38 80t107 17q65 0 85.5 -19t8.5 -72l-73 -335h131q44 0 56 -23.5t3 -81.5q-10 -62 -29 -82 t-65 -20h-148l-51 -244h133q45 0 57 -23.5t3 -80.5q-10 -63 -29 -83t-65 -20h-146l-80 -352q-10 -44 -22 -62t-37.5 -25t-83.5 -7q-67 0 -86 17t-8 67l82 362h-217l-80 -350q-14 -63 -38.5 -79.5t-107.5 -16.5q-65 0 -85.5 17.5t-10.5 64.5l82 364h-143q-44 0 -56.5 24 t-3.5 81zM537 639h219l53 244h-221z" />
<glyph unicode="$" d="M150 319q-23 60 0.5 93t89.5 57q73 24 105.5 11.5t62.5 -70.5q35 -64 98.5 -108t157.5 -44q116 0 174.5 43.5t58.5 120.5q0 17 -4.5 32t-10.5 27.5t-19.5 26t-25 23t-33.5 22t-37 20.5t-45 21t-48.5 20.5t-55.5 23t-59 24.5q-94 39 -158.5 76t-114.5 84.5t-74 106.5 t-24 134q0 147 85.5 248t240.5 139v115q0 65 34 89.5t114 24.5q79 0 113 -24.5t34 -89.5v-119q130 -19 229 -91.5t140 -164.5q23 -53 -3 -83.5t-102 -57.5q-60 -20 -90.5 -11.5t-52.5 49.5q-75 146 -254 146q-101 0 -152 -40.5t-51 -102.5q0 -60 56 -97t240 -116 q20 -9 30 -13q99 -43 163.5 -79.5t119.5 -84t80.5 -106t25.5 -131.5q0 -149 -102.5 -266t-276.5 -156v-92q0 -66 -34 -90.5t-113 -24.5t-113.5 25t-34.5 90v90q-119 17 -221.5 96t-142.5 184z" />
<glyph unicode="%" horiz-adv-x="1613" d="M59 1024v262q0 120 88 185t224 65q135 0 223 -65t88 -185v-262q0 -122 -88.5 -187t-224.5 -65q-135 0 -222.5 65t-87.5 187zM270 1026q0 -38 25.5 -60t73.5 -22q100 0 100 82v256q0 38 -25 60t-75 22q-46 0 -72.5 -23.5t-26.5 -62.5v-252zM295 5q-16 19 12 71l740 1345 q37 67 63 82t109 15q66 0 81.5 -19t-12.5 -72l-739 -1345q-37 -67 -62.5 -81.5t-109.5 -14.5q-66 0 -82 19zM932 225v256q0 121 87.5 188.5t221.5 67.5q136 0 224.5 -67t88.5 -189v-256q0 -122 -88 -186t-225 -64q-135 0 -222 64t-87 186zM1143 227q0 -38 24.5 -60t73.5 -22 q98 0 98 82v254q0 39 -24.5 62.5t-73.5 23.5t-73.5 -23.5t-24.5 -62.5v-254z" />
<glyph unicode="&#x26;" horiz-adv-x="1488" d="M90 391q0 146 68.5 247.5t218.5 201.5q-102 109 -139 185t-37 163q0 147 117 247.5t272 100.5q181 0 291 -100.5t110 -249.5q0 -62 -17 -114t-55.5 -99.5t-75.5 -82t-102 -85.5l236 -277q14 55 14 138v24q0 52 34.5 72t102.5 20q71 0 106.5 -20t35.5 -72v-10 q0 -124 -31 -221t-74 -152l166 -192q39 -45 39 -76q0 -30 -29 -41.5t-86 -11.5q-88 0 -124 9.5t-74 53.5l-49 60q-94 -74 -182.5 -104t-209.5 -30q-242 0 -384 116.5t-142 299.5zM381 416q0 -78 63 -138.5t181 -60.5q138 0 213 92l-308 350q-81 -60 -115 -109t-34 -134z M477 1165q0 -45 24 -85.5t83 -102.5q71 50 101 88t30 100q0 131 -125 131q-51 0 -82 -35t-31 -96z" />
<glyph unicode="'" horiz-adv-x="479" d="M133 1417q-3 55 27 75.5t98 20.5q69 0 99.5 -20.5t27.5 -75.5l-35 -440q-2 -42 -21.5 -58t-70.5 -16t-71 15.5t-21 56.5z" />
<glyph unicode="(" horiz-adv-x="747" d="M100 659q0 254 86.5 491.5t202.5 371.5q33 36 72.5 28.5t95.5 -57.5q33 -29 46.5 -48.5t13 -44t-22.5 -54.5q-86 -116 -145.5 -301t-59.5 -388q0 -216 49.5 -400t124.5 -294q21 -30 22 -54t-13 -44t-46 -49q-56 -50 -95.5 -57.5t-72.5 28.5q-58 70 -113.5 187.5 t-100 304.5t-44.5 380z" />
<glyph unicode=")" horiz-adv-x="747" d="M133.5 1400.5q-0.5 24.5 13 44t46.5 48.5q56 50 95 57.5t72 -28.5q116 -134 202.5 -371.5t86.5 -491.5q0 -193 -44.5 -380t-100 -304.5t-113.5 -187.5q-33 -36 -72.5 -28.5t-95.5 57.5q-32 29 -46 49t-13 44t22 54q75 110 124.5 294t49.5 400q0 204 -59.5 388.5 t-144.5 300.5q-22 30 -22.5 54.5z" />
<glyph unicode="*" horiz-adv-x="890" d="M64.5 1169.5q-9.5 29.5 9.5 83.5q16 55 40.5 74.5t67.5 1.5l185 -90l-21 211q-4 47 21 64.5t84 17.5t83.5 -17.5t20.5 -64.5l-23 -207l183 86q41 19 66.5 -1t41.5 -75q19 -54 9.5 -83.5t-56.5 -39.5l-194 -47l141 -153q22 -24 24 -45.5t-12 -40.5t-45 -43 q-30 -24 -52.5 -32.5t-43 -1t-37.5 35.5l-113 186l-110 -186q-17 -28 -37.5 -35.5t-43 1t-52.5 32.5q-31 24 -45 43t-12 40.5t24 45.5l141 153l-188 47q-47 10 -56.5 39.5z" />
<glyph unicode="+" d="M137 633q0 63 19 89t71 26h310v311q0 58 29 79t98 21q70 0 99.5 -21t29.5 -79v-311h313q52 0 71 -26t19 -89t-19 -90t-71 -27h-313v-326q0 -58 -29.5 -79t-99.5 -21q-69 0 -98 21t-29 79v326h-310q-52 0 -71 27t-19 90z" />
<glyph unicode="," horiz-adv-x="495" d="M5 -219.5q0 30.5 26 53.5q69 53 91.5 131t24.5 238q0 61 32 83.5t106 22.5q75 0 107 -22.5t32 -83.5q0 -93 -29 -181t-75 -152.5t-99.5 -111t-107.5 -67.5q-45 -18 -86 33q-22 26 -22 56.5z" />
<glyph unicode="-" horiz-adv-x="1013" d="M102 618q0 60 19 86.5t65 26.5h641q46 0 65 -26.5t19 -86.5q0 -57 -19 -82.5t-65 -25.5h-641q-46 0 -65 25.5t-19 82.5z" />
<glyph unicode="." horiz-adv-x="518" d="M119 207q0 58 33.5 80t105.5 22t105.5 -22t33.5 -80v-119q0 -58 -32.5 -80t-104.5 -22t-105.5 22t-33.5 80z" />
<glyph unicode="/" horiz-adv-x="837" d="M27 76l510 1335q29 75 59 91t119 16q79 0 96 -19t-6 -82l-510 -1335q-26 -67 -51 -81.5t-111 -14.5q-69 0 -97 20t-9 70z" />
<glyph unicode="0" d="M121 504v495q0 123 29.5 216.5t92.5 164t169.5 107.5t253.5 37q148 0 255 -37t170 -107.5t92 -164t29 -216.5v-497q0 -123 -29 -217t-92 -165t-170 -108t-255 -37q-147 0 -253.5 37t-169.5 108.5t-92.5 166t-29.5 217.5zM416 541q0 -150 59.5 -227.5t190.5 -77.5 q63 0 108.5 14t73 37.5t43.5 63t21.5 83.5t5.5 105v424q0 62 -5.5 106t-21.5 83.5t-43.5 63t-72.5 37t-109 13.5q-131 0 -190.5 -76.5t-59.5 -226.5v-422z" />
<glyph unicode="1" d="M268 1214q-6 62 8 90.5t60 38.5q8 2 51.5 10.5t72 15t66.5 18.5t60 26q28 17 43 47q17 33 46 43t79 10q62 0 89 -19.5t27 -70.5v-1163h166q56 0 77.5 -31t21.5 -102q0 -67 -22 -97t-77 -30h-647q-54 0 -76 30.5t-22 96.5q0 71 22 102t76 31h186v873l-213 -15 q-49 -3 -68.5 17.5t-25.5 78.5z" />
<glyph unicode="2" d="M123 143q0 123 18 210.5t68 170.5t143.5 150t239.5 127q160 65 226.5 127.5t66.5 142.5q0 195 -207 195q-58 0 -100.5 -11t-72 -34.5t-48.5 -50t-41 -68.5q-24 -47 -56.5 -56t-99.5 19q-67 26 -88.5 59t0.5 88q67 146 202.5 229t303.5 83q134 0 233.5 -33.5t158 -96 t86.5 -142.5t28 -181q0 -168 -107 -281.5t-340 -211.5q-64 -27 -111.5 -51t-80.5 -43.5t-54.5 -41t-34 -38t-18 -40t-7 -41t-1.5 -47.5v-16h647q57 0 79 -30.5t22 -100.5q0 -68 -22 -98.5t-79 -30.5h-768q-101 0 -143.5 30t-42.5 113z" />
<glyph unicode="3" d="M124 358q17 34 77 62q124 59 161 -25q74 -159 267 -159q106 0 170.5 53.5t64.5 142.5v8q0 101 -63 157t-172 56h-60q-51 0 -71.5 28t-20.5 93t20.5 93t71.5 28h60q102 0 160.5 48t58.5 128v21q0 74 -52 124t-161 50q-178 0 -242 -125q-24 -47 -54 -56.5t-95 15.5 q-65 24 -87 56.5t-1 84.5q58 141 184 212t295 71q243 0 374.5 -110.5t131.5 -301.5v-22q0 -117 -61.5 -200.5t-159.5 -113.5q102 -30 170.5 -113.5t68.5 -205.5v-31q0 -135 -74 -239.5t-192.5 -158t-257.5 -53.5q-201 0 -324.5 77.5t-181.5 205.5q-22 66 -5 100z" />
<glyph unicode="4" d="M106.5 492q3.5 34 30.5 73l658 910q24 33 50.5 42.5t55 -1.5t68.5 -41q55 -44 65 -78.5t-24 -85.5l-529 -738h277v144q0 65 34 89.5t113 24.5q80 0 114 -24.5t34 -89.5v-144h71q57 0 79 -30.5t22 -100.5q0 -68 -22 -97.5t-79 -29.5h-71v-215q0 -65 -34 -89.5t-114 -24.5 q-79 0 -113 24.5t-34 89.5v215h-520q-48 0 -75 23.5t-46 79.5q-14 40 -10.5 74z" />
<glyph unicode="5" d="M143 327.5q3 30.5 20.5 51t55.5 43.5q120 69 164 -10q19 -35 39.5 -62t52.5 -55t77 -43.5t101 -15.5q111 0 172.5 69.5t61.5 188.5v28q0 120 -60 184t-176 64q-117 0 -207 -94q-32 -34 -67 -38.5t-103 21.5q-50 21 -71 46t-17 75l41 574q6 84 47 114.5t140 30.5h590 q57 0 78.5 -30.5t21.5 -100.5q0 -69 -21.5 -99t-78.5 -30h-519l-26 -332l2 -2q113 103 295 103q93 0 170 -29.5t135 -87t90.5 -149.5t32.5 -210v-53q0 -125 -40.5 -222.5t-112.5 -158.5t-167 -92t-209 -31q-348 0 -493 283q-22 39 -19 69.5z" />
<glyph unicode="6" d="M143 506v477q0 153 64 274.5t192 194t301 72.5q101 0 182.5 -22t134 -60t85 -76.5t53.5 -83.5q25 -55 0.5 -90.5t-94.5 -58.5q-67 -25 -98 -18.5t-56 48.5q-61 103 -207 103q-126 0 -194 -71t-68 -216v-80l4 -2q123 111 306 111q219 0 351 -132.5t132 -359.5v-49 q0 -102 -38 -192.5t-106 -156.5t-168.5 -104.5t-218.5 -38.5q-270 0 -413.5 144t-143.5 387zM438 489q0 -116 67 -184.5t193 -68.5q110 0 174 70t64 183v15q0 121 -64.5 193.5t-175.5 72.5q-118 0 -188 -72t-70 -194v-15z" />
<glyph unicode="7" d="M160 1370q0 69 21.5 99t78.5 30h852q34 0 51 -26.5t17 -71.5q0 -44 -6.5 -67t-26.5 -50q-95 -135 -177.5 -273.5t-159 -297t-121 -318.5t-44.5 -295q0 -65 -34 -89.5t-113 -24.5q-80 0 -114 24.5t-34 89.5q0 113 30.5 242.5t74.5 240.5t111.5 240t121.5 217.5t125 198.5 h-553q-57 0 -78.5 30.5t-21.5 100.5z" />
<glyph unicode="8" d="M92 410v30q0 137 64 222t198 141q-97 28 -154 112t-57 205v23q0 181 132.5 281t392.5 100q259 0 390.5 -100t131.5 -281v-23q0 -121 -57 -205t-154 -112q134 -56 198 -141t64 -222v-30q0 -210 -152 -322.5t-421 -112.5q-270 0 -423 112.5t-153 322.5zM387 440 q0 -109 66 -160t215 -51q147 0 212.5 51t65.5 160v21q0 108 -66 160.5t-212 52.5q-148 0 -214.5 -52.5t-66.5 -160.5v-21zM426 1096q0 -102 59.5 -148.5t182.5 -46.5q122 0 180.5 46.5t58.5 148.5v10q0 100 -53.5 140t-185.5 40q-133 0 -187.5 -40t-54.5 -140v-10z" />
<glyph unicode="9" d="M106 971v55q0 102 37.5 192.5t106 158.5t173 107.5t230.5 39.5q155 0 277 -54.5t196 -168.5t74 -273v-498q0 -124 -32.5 -222t-85.5 -159.5t-125.5 -101.5t-147 -56t-156.5 -16q-180 0 -314.5 66t-195.5 186q-25 54 -1 88t96 62q66 24 95.5 18t55.5 -45q76 -114 254 -114 q121 0 190.5 59t69.5 184v111q-52 -56 -129 -87.5t-168 -31.5q-231 0 -365.5 139t-134.5 361zM401 977q0 -128 64.5 -198t187.5 -70t186.5 70t63.5 198v27q0 125 -63.5 193.5t-186.5 68.5q-124 0 -188 -68.5t-64 -193.5v-27z" />
<glyph unicode=":" horiz-adv-x="483" d="M100 92v107q0 59 33 82.5t103 23.5q71 0 104 -23.5t33 -82.5v-107q0 -59 -33 -82.5t-104 -23.5q-70 0 -103 23.5t-33 82.5zM100 920v106q0 59 33.5 83t102.5 24q71 0 104 -24t33 -83v-106q0 -59 -33 -83t-104 -24q-69 0 -102.5 24t-33.5 83z" />
<glyph unicode=";" horiz-adv-x="499" d="M-26 -219.5q0 30.5 26 53.5q69 53 92 131.5t25 237.5q0 61 31.5 83.5t105.5 22.5q75 0 107 -22.5t32 -83.5q0 -93 -29 -181t-75 -152.5t-99.5 -111t-107.5 -67.5q-45 -18 -86 33q-22 26 -22 56.5zM117 920v106q0 59 33 83t102 24q71 0 104 -24t33 -83v-106q0 -59 -33 -83 t-104 -24q-69 0 -102 24t-33 83z" />
<glyph unicode="&#x3c;" d="M209 633q0 57 13.5 85.5t53.5 41.5l723 244q42 14 63 -14.5t21 -90.5q0 -73 -15 -100t-52 -37l-492 -129l492 -133q37 -10 52 -37t15 -101q0 -61 -20.5 -89.5t-63.5 -14.5l-718 240q-44 14 -58 42.5t-14 92.5z" />
<glyph unicode="=" d="M223 459q0 63 20 91t68 28h711q48 0 68 -28t20 -91q0 -59 -20 -86t-68 -27h-711q-48 0 -68 27t-20 86zM223 801q0 63 20 91t68 28h711q48 0 68 -28t20 -91q0 -59 -20 -86t-68 -27h-711q-48 0 -68 27t-20 86z" />
<glyph unicode="&#x3e;" d="M252 362q0 74 15 101t52 37l492 133l-492 129q-37 10 -52 37t-15 100q0 62 21 90.5t63 14.5l723 -244q40 -13 53.5 -41.5t13.5 -85.5q0 -65 -13.5 -93t-57.5 -42l-719 -240q-43 -14 -63.5 14.5t-20.5 89.5z" />
<glyph unicode="?" horiz-adv-x="880" d="M21.5 1305.5q-4.5 37.5 33.5 85.5q126 145 359 145q190 0 309 -108.5t119 -262.5q0 -68 -24.5 -130.5t-60.5 -107t-79 -93t-79 -89t-60.5 -94.5t-24.5 -110v-11q0 -53 -25.5 -72.5t-89.5 -19.5q-65 0 -90.5 18.5t-25.5 71.5v27q0 84 29.5 157.5t71 125.5t83 98.5t71 97 t29.5 99.5q0 74 -44 118.5t-130 44.5q-57 0 -100 -22t-88 -70q-32 -34 -64.5 -29.5t-72.5 48.5q-42 45 -46.5 82.5zM272 86v92q0 52 30.5 72t96.5 20t96.5 -20t30.5 -72v-92q0 -52 -30.5 -72t-96.5 -20t-96.5 20t-30.5 72z" />
<glyph unicode="@" horiz-adv-x="1683" d="M100 457v299q0 49 10.5 103.5t36.5 117t65 120t100.5 111.5t138 93.5t183 63.5t230.5 24q132 0 241 -24t182 -62t128.5 -91t86.5 -105t50 -111t25 -101.5t6 -83.5v-283q0 -352 -307 -352q-44 0 -84 10t-65.5 24t-45 28t-28.5 24l-9 10q-110 -110 -272 -110 q-73 0 -137.5 28.5t-108 87t-43.5 134.5v22q0 104 45.5 168t159 96t301.5 23v29q0 61 -40.5 102t-121.5 41q-100 0 -139 -84q-19 -35 -40 -41.5t-62 8.5q-49 19 -67 43t1 64q40 82 125 133t197 51q179 0 269.5 -93t90.5 -251v-287q0 -45 27 -70.5t63 -25.5q42 0 70.5 32 t28.5 95v317q0 47 -12.5 97t-48.5 108.5t-92 103.5t-152.5 75t-219.5 30q-127 0 -226 -29t-159.5 -75.5t-99 -111.5t-53.5 -131t-15 -140v-222q0 -100 34 -186.5t97.5 -152t161.5 -103t219 -37.5q100 0 198 14.5t138.5 26t67.5 21.5q28 13 52 1.5t38 -55.5q17 -58 11 -80.5 t-34 -37.5q-15 -7 -64 -23t-167.5 -36.5t-239.5 -20.5q-123 0 -227 25t-177 66t-130.5 96.5t-92.5 114t-58 121.5t-31.5 115t-8.5 99zM692 424q0 -37 31 -62.5t82 -25.5q114 0 182 82v147q-79 3 -136 -3.5t-87 -18t-47 -32t-21 -37t-4 -40.5v-10z" />
<glyph unicode="A" horiz-adv-x="1277" d="M35 100l424 1323q17 54 63 73.5t140 19.5q71 0 114.5 -21t59.5 -72l407 -1317q7 -23 7 -41q0 -31 -21 -49q-34 -28 -111 -28q-79 0 -114 17t-48 67l-88 309h-473l-96 -313q-15 -47 -47 -63.5t-102 -16.5q-78 0 -106 26q-16 16 -17 43q0 19 8 43zM469 623h332l-160 571z " />
<glyph unicode="B" horiz-adv-x="1259" d="M131 145v1209q0 83 42.5 114t143.5 31h377q214 0 332.5 -101t118.5 -270v-32q0 -113 -57 -196.5t-156 -119.5q117 -22 187.5 -113.5t70.5 -226.5v-26q0 -185 -132.5 -299.5t-365.5 -114.5h-375q-101 0 -143.5 31t-42.5 114zM426 260h192q146 0 211.5 43t65.5 154 q-1 104 -62 149t-176 45h-231v-391zM426 887h195q235 0 235 170v22q0 95 -62.5 132.5t-191.5 37.5h-176v-362z" />
<glyph unicode="C" horiz-adv-x="1239" d="M111 510v465q0 121 34.5 220t102 173t175 115t247.5 41q207 0 328 -90t167 -236q7 -22 7 -41q0 -30 -18 -48q-30 -30 -105 -46q-41 -8 -68 -8q-22 0 -35 5q-29 12 -49 60q-30 75 -84.5 110.5t-146.5 35.5q-127 0 -193.5 -85.5t-66.5 -234.5v-397q0 -148 68 -230.5 t194 -82.5q171 0 231 157q17 48 59 56q9 2 20 2q37 0 91 -23q31 -13 50 -26.5t30.5 -31.5t10.5 -42t-13 -56q-21 -55 -61 -105.5t-98 -94.5t-142 -70.5t-180 -26.5q-276 0 -415.5 137.5t-139.5 397.5z" />
<glyph unicode="D" horiz-adv-x="1331" d="M131 145v1209q0 83 42.5 114t143.5 31h353q139 0 246 -38.5t173 -108t99 -160.5t33 -201v-504q0 -105 -33 -192t-99 -154t-173 -104t-246 -37h-353q-101 0 -143.5 31t-42.5 114zM426 260h205q158 0 226.5 69t68.5 212v405q0 146 -69 219.5t-226 73.5h-205v-979z" />
<glyph unicode="E" horiz-adv-x="1087" d="M131 145v1209q0 83 42.5 114t143.5 31h584q57 0 78.5 -30.5t21.5 -100.5q0 -69 -21.5 -99t-78.5 -30h-475v-352h428q54 0 75 -29.5t21 -97.5q0 -67 -21 -96t-75 -29h-428v-375h475q57 0 78.5 -30.5t21.5 -100.5q0 -69 -21.5 -99t-78.5 -30h-584q-101 0 -143.5 31 t-42.5 114z" />
<glyph unicode="F" horiz-adv-x="1019" d="M131 100v1254q0 83 42.5 114t143.5 31h562q57 0 78.5 -30.5t21.5 -100.5q0 -69 -21.5 -99t-78.5 -30h-453v-393h408q54 0 75 -29.5t21 -97.5q0 -67 -21 -96t-75 -29h-408v-494q0 -65 -34 -89.5t-113 -24.5q-80 0 -114 24.5t-34 89.5z" />
<glyph unicode="G" d="M111 496v524q0 229 153 366.5t420 137.5q117 0 207.5 -25.5t148.5 -72.5t94 -102t58 -126q7 -22 7 -40q0 -29 -19 -48q-30 -31 -105 -47q-41 -8 -68 -8q-22 0 -35 5q-28 12 -48 60q-30 75 -84 110.5t-146 35.5q-150 0 -219 -75t-69 -218v-445q0 -153 76 -222.5t208 -69.5 q277 0 277 294v68h-195q-48 0 -67 26t-19 85q0 60 19 86t67 26h328q80 0 117.5 -31t37.5 -104v-192q0 -229 -156 -374t-409 -145q-281 0 -430 135.5t-149 385.5z" />
<glyph unicode="H" horiz-adv-x="1427" d="M131 100v1299q0 65 34 89.5t114 24.5q79 0 113 -24.5t34 -89.5v-520h575v520q0 65 34 89.5t114 24.5q79 0 113 -24.5t34 -89.5v-1299q0 -65 -34 -89.5t-113 -24.5q-80 0 -114 24.5t-34 89.5v518h-575v-518q0 -65 -34 -89.5t-113 -24.5q-80 0 -114 24.5t-34 89.5z" />
<glyph unicode="I" horiz-adv-x="577" d="M141 100v1299q0 65 34 89.5t114 24.5q79 0 113 -24.5t34 -89.5v-1299q0 -65 -34 -89.5t-113 -24.5q-80 0 -114 24.5t-34 89.5z" />
<glyph unicode="J" horiz-adv-x="966" d="M28 157q-1 8 -1 16q0 20 8 38q12 26 39 59q54 65 105 65q29 0 57 -22q77 -59 165 -59q73 0 115.5 45t42.5 127v958q0 65 34.5 90t113.5 25t113 -24.5t34 -90.5v-935q0 -237 -115 -355.5t-329 -118.5q-216 0 -349 127q-28 27 -33 55z" />
<glyph unicode="K" horiz-adv-x="1251" d="M131 100v1299q0 65 34 89.5t114 24.5q79 0 113 -24.5t34 -89.5v-531l444 559q43 55 82 70.5t133 15.5q140 0 140 -53q0 -25 -43 -80l-385 -477l405 -766q35 -65 35 -84q0 -35 -33 -51t-114 -16q-88 0 -120.5 15t-62.5 75l-313 622l-168 -211v-387q0 -65 -34 -89.5 t-113 -24.5q-80 0 -114 24.5t-34 89.5z" />
<glyph unicode="L" horiz-adv-x="1054" d="M131 131v1268q0 65 34 89.5t114 24.5q79 0 113 -24.5t34 -89.5v-1139h524q57 0 79 -30.5t22 -100.5q0 -68 -22 -98.5t-79 -30.5h-651q-91 0 -129.5 28.5t-38.5 102.5z" />
<glyph unicode="M" horiz-adv-x="1695" d="M131 88v1292q0 60 43 92.5t154 32.5q123 0 170.5 -23t68.5 -98l187 -649q70 -249 92 -473q16 188 100 477q107 345 199 652q21 71 67 92.5t164 21.5q106 0 147.5 -31.5t41.5 -89.5v-1294q0 -60 -31 -82t-104 -22q-72 0 -103 22.5t-31 81.5v711q0 217 15 399h-4 l-320 -1141q-11 -43 -47 -58t-98 -15q-80 0 -118.5 15t-49.5 58l-289 1153h-6q14 -168 14 -376v-748q0 -58 -30.5 -80t-100.5 -22t-100.5 22t-30.5 80z" />
<glyph unicode="N" horiz-adv-x="1429" d="M131 96v1284q0 53 15 79.5t56.5 39t125.5 12.5q118 0 163.5 -20.5t73.5 -83.5l301 -651q105 -215 172 -445h6q-24 228 -24 459v635q0 62 32 85t107 23q76 0 108.5 -23t32.5 -85v-1296q0 -49 -13.5 -73t-53.5 -36t-119 -12q-78 0 -120 9.5t-64.5 29.5t-42.5 61l-316 657 q-53 114 -180 441h-6q27 -249 27 -406v-684q0 -64 -32.5 -87t-109.5 -23q-75 0 -107 23t-32 87z" />
<glyph unicode="O" horiz-adv-x="1392" d="M111 518v469q0 116 36.5 213t108 169.5t184 113.5t256.5 41q145 0 258 -41t184 -114.5t107.5 -171.5t36.5 -216v-469q0 -247 -150 -392t-436 -145q-289 0 -437 146.5t-148 396.5zM406 557q0 -157 67 -239t223 -82q154 0 222.5 82t68.5 235v389q0 324 -291 324 q-156 0 -223 -82t-67 -238v-389z" />
<glyph unicode="P" horiz-adv-x="1204" d="M131 100v1266q0 76 39.5 104.5t130.5 28.5h309q261 0 393 -124.5t132 -340.5v-86q0 -216 -133 -339.5t-396 -123.5h-180v-385q0 -65 -34 -89.5t-113 -24.5q-80 0 -114 24.5t-34 89.5zM426 743h160q143 0 197.5 52.5t54.5 175.5v39q0 125 -54.5 178t-197.5 53h-160v-498z " />
<glyph unicode="Q" horiz-adv-x="1392" d="M111 512v469v6q0 114 35 209q37 99 108 172.5t184 114.5t258 41t258 -41t184 -114.5t107.5 -171.5t36.5 -216v-469q0 -162 -66.5 -284t-195.5 -187l133 -248q13 -24 13 -41q0 -14 -8 -24q-19 -21 -87 -21q-77 0 -102.5 12t-50.5 60l-109 205q-55 -9 -113 -9 q-287 0 -436 145t-149 392zM406 557q0 -84 16 -144t56 -103.5t106 -61.5q62 -15 92 -15l-94 177q-13 24 -13 41q0 14 8 23q19 22 87 22q77 0 102.5 -12t50.5 -60l72 -135q98 77 98 264v395q0 318 -291 318q-154 0 -222 -81.5t-68 -232.5v-395z" />
<glyph unicode="R" horiz-adv-x="1243" d="M131 100v1266q0 76 39.5 104.5t130.5 28.5h377q239 0 358 -115t119 -315v-108q0 -136 -55.5 -234t-186.5 -158l228 -430q35 -65 35 -86q0 -35 -34 -51t-116 -16q-89 0 -121.5 15t-62.5 77l-228 454h-188v-432q0 -65 -34 -89.5t-113 -24.5q-80 0 -114 24.5t-34 89.5z M426 784h201q123 0 178 48t55 161v45q0 111 -54.5 157t-176.5 46h-203v-457z" />
<glyph unicode="S" horiz-adv-x="1157" d="M74 256q-11 30 -11 53q0 24 12 41q23 32 89 56q48 16 79 16q16 0 27 -4q33 -13 62 -72q57 -121 239 -121q49 0 96 16t83 56t36 98q0 79 -59 130t-211 116q-114 49 -186.5 91t-129.5 97.5t-82.5 124.5t-25.5 160q0 122 64.5 217t170 144t232.5 49q104 0 188.5 -21.5 t143 -60.5t97.5 -87.5t61 -107.5q9 -22 9 -40q0 -27 -18 -47q-30 -32 -106 -50q-42 -10 -69 -10q-13 0 -23 2q-32 7 -51 47q-34 69 -88.5 96t-137.5 27q-90 0 -137 -42.5t-47 -115.5q0 -30 11.5 -54t32 -43.5t58.5 -41t80.5 -41t108.5 -48.5q24 -10 37 -16q97 -43 162.5 -85 t116 -96t74 -122t23.5 -155q0 -191 -142.5 -314t-379.5 -123q-202 0 -324 78t-165 203z" />
<glyph unicode="T" horiz-adv-x="1120" d="M-16 1370q0 70 21.5 99.5t78.5 29.5h956q57 0 79 -30t22 -99q0 -68 -22 -98.5t-79 -30.5h-331v-1141q0 -65 -34.5 -89.5t-115.5 -24.5q-79 0 -113 24.5t-34 89.5v1141h-328q-57 0 -78.5 30t-21.5 99z" />
<glyph unicode="U" horiz-adv-x="1372" d="M121 467v932q0 65 34 89.5t113 24.5q80 0 114 -24.5t34 -89.5v-873q0 -145 64.5 -220t205.5 -75q279 0 279 295v877q0 63 33 86.5t110 23.5t110 -23.5t33 -86.5v-936q0 -226 -154.5 -359t-410.5 -133q-273 0 -419 130.5t-146 361.5z" />
<glyph unicode="V" horiz-adv-x="1255" d="M25 1391q-7 22 -7 41q0 32 22 51q36 30 116 30q81 0 117 -17.5t49 -68.5l178 -630q78 -266 123 -551h4q37 215 135 551l190 633q14 49 49.5 66t110.5 17q84 0 112 -28q17 -16 17 -45q0 -20 -8 -45l-422 -1315q-17 -53 -63.5 -72.5t-141.5 -19.5q-71 0 -115.5 20.5 t-60.5 71.5z" />
<glyph unicode="W" horiz-adv-x="1849" d="M8 1391q-5 20 -5 37q0 36 23 56q33 29 121 29q70 0 104.5 -18t45.5 -70l115 -538q82 -375 104 -641h4q38 328 111 637l129 544q10 50 45 68t104 18q67 0 104.5 -19.5t47.5 -66.5l135 -538q95 -383 131 -643h4q29 270 109 643l114 541q10 49 43.5 66t100.5 17 q84 1 116 -27q21 -19 22 -54q0 -17 -5 -37l-326 -1323q-21 -88 -182 -88q-83 0 -126 18.5t-56 69.5l-150 643q-37 157 -76 372h-2q-26 -183 -69 -372l-146 -643q-19 -88 -182 -88q-82 0 -124.5 18.5t-55.5 69.5z" />
<glyph unicode="X" horiz-adv-x="1282" d="M25 37q0 29 24 65l432 650l-391 634q-24 39 -24 66q0 33 27 47t106 14q85 0 117 -12t65 -61l272 -469l269 463q22 39 40 53.5t49.5 20t106.5 5.5q63 0 91 -11.5t28 -37.5t-25 -63l-409 -635l430 -664q24 -36 24 -61q0 -30 -28.5 -42.5t-93.5 -12.5q-105 0 -138 9.5 t-57 53.5l-303 500l-285 -479q-34 -57 -67.5 -70.5t-137.5 -13.5q-65 0 -93.5 11.5t-28.5 39.5z" />
<glyph unicode="Y" horiz-adv-x="1230" d="M14 1452q0 33 27 47t106 14q89 0 121 -11t58 -62l295 -586l280 580q27 55 58.5 67t138.5 12q129 0 129 -49q0 -18 -25 -63l-438 -813v-488q0 -65 -34 -89.5t-114 -24.5q-79 0 -113 24.5t-34 89.5v488l-430 798q-25 48 -25 66z" />
<glyph unicode="Z" horiz-adv-x="1163" d="M58 178q4 34 30 74l653 987h-524q-57 0 -78.5 30t-21.5 99q0 70 21.5 100.5t78.5 30.5h793q44 0 65.5 -23t34.5 -75q4 -20 4 -37q0 -16 -4 -30q-6 -28 -31 -64l-663 -1010h602q57 0 78.5 -30.5t21.5 -100.5q0 -69 -21.5 -99t-78.5 -30h-830q-48 0 -74.5 24t-45.5 80 q-11 32 -11 60q0 7 1 14z" />
<glyph unicode="[" horiz-adv-x="780" d="M170 -170v1600q0 74 38.5 102.5t129.5 28.5h315q51 0 70.5 -27.5t19.5 -91.5q0 -62 -19.5 -89.5t-70.5 -27.5h-202v-1391h202q51 0 70.5 -27t19.5 -89q0 -64 -19.5 -91.5t-70.5 -27.5h-315q-91 0 -129.5 28.5t-38.5 102.5z" />
<glyph unicode="\" horiz-adv-x="802" d="M31 1499q17 19 96 19q89 0 119 -16t59 -91l504 -1335q19 -50 -9.5 -70t-97.5 -20q-85 0 -110 14.5t-51 81.5l-504 1335q-23 63 -6 82z" />
<glyph unicode="]" horiz-adv-x="780" d="M37 -182q0 62 19.5 89t70.5 27h203v1391h-203q-51 0 -70.5 27.5t-19.5 89.5q0 64 19.5 91.5t70.5 27.5h315q91 0 129.5 -28.5t38.5 -102.5v-1600q0 -74 -38.5 -102.5t-129.5 -28.5h-315q-51 0 -70.5 27.5t-19.5 91.5z" />
<glyph unicode="^" d="M238 729l276 715q17 43 54 56t100 13q71 0 107 -12.5t52 -54.5l271 -717q18 -45 -14 -67.5t-97 -22.5q-54 0 -85 9.5t-42 23t-20 39.5l-172 503l-172 -503q-14 -39 -42 -55.5t-106 -16.5q-65 0 -96.5 22.5t-13.5 67.5z" />
<glyph unicode="_" horiz-adv-x="786" d="M-4 -133h795v-125h-795v125z" />
<glyph unicode="`" horiz-adv-x="585" d="M110.5 1545q22.5 24 88.5 24q60 0 95 -14t54 -46l123 -211q41 -71 -70 -71q-42 0 -66 11.5t-44 37.5l-174 207q-29 38 -6.5 62z" />
<glyph unicode="a" horiz-adv-x="1124" d="M72 299v14q0 349 494 349q70 0 149 -7v84q0 83 -44.5 126.5t-144.5 43.5q-67 0 -104.5 -22.5t-65.5 -65.5q-28 -45 -58 -51q-4 -1 -10 -1q-29 0 -77 26q-30 15 -49 29t-30.5 32t-9 40.5t18.5 49.5q59 101 158.5 149t267.5 48q186 0 307 -111t121 -309v-633 q0 -61 -31 -83.5t-106 -22.5q-73 0 -104 22.5t-31 83.5v49q-59 -76 -132.5 -117.5t-182.5 -41.5q-153 0 -244.5 92.5t-91.5 226.5zM356 330q0 -53 34 -87t95 -34q148 0 230 115v157q-44 2 -81 2q-56 -1 -100 -5q-72 -8 -110.5 -28.5t-53 -48t-14.5 -67.5v-4z" />
<glyph unicode="b" horiz-adv-x="1247" d="M131 92v1340q0 63 33 86.5t110 23.5q78 0 111 -23.5t33 -86.5v-461q58 70 144 121t192 51q180 0 286.5 -119.5t106.5 -329.5v-276q0 -108 -36.5 -194.5t-98 -139.5t-139 -81t-162.5 -28q-212 0 -301 152v-35q0 -60 -32 -83t-108 -23q-75 0 -107 23t-32 83zM418 471 q0 -111 61.5 -186.5t169.5 -75.5q211 0 211 237v199q0 264 -211 264q-92 0 -161.5 -64t-69.5 -175v-199z" />
<glyph unicode="c" horiz-adv-x="1103" d="M102 424v268q0 109 38.5 196t104.5 142t150.5 84t179.5 29q162 0 275 -76t151 -217q5 -20 5 -37q0 -31 -18 -50q-28 -30 -97 -44q-39 -9 -66 -9q-23 0 -37 6q-32 14 -45 66q-16 55 -61 91t-107 36q-186 0 -186 -233v-252q0 -215 197 -215q66 0 102.5 32t67.5 91 q22 43 68 43q40 0 96 -33q38 -23 55.5 -43.5t20.5 -50.5v-8q0 -28 -19 -62q-46 -93 -147.5 -148t-251.5 -55q-215 0 -345.5 115t-130.5 334z" />
<glyph unicode="d" horiz-adv-x="1249" d="M102 420v278q0 201 114.5 323t311.5 122q181 0 303 -101v390q0 63 33 86.5t111 23.5q77 0 110 -23.5t33 -86.5v-1336q0 -63 -33 -86.5t-110 -23.5q-76 0 -105.5 23t-29.5 87v19q-46 -57 -128.5 -98.5t-191.5 -41.5q-183 0 -300.5 116t-117.5 329zM389 451 q0 -122 55.5 -182t159.5 -60q119 0 173 75t54 199v199q0 101 -65 164t-156 63q-104 0 -162.5 -60.5t-58.5 -211.5v-186z" />
<glyph unicode="e" horiz-adv-x="1138" d="M102 424v256q0 216 128.5 339.5t344.5 123.5q465 0 465 -492v-61q0 -62 -36.5 -96.5t-100.5 -34.5h-518v-45q0 -205 195 -205q70 0 122.5 29t81.5 73q24 35 61 37q2 0 3 1q37 0 100 -34q36 -20 53 -38.5t16 -45.5t-24 -63q-65 -95 -172.5 -144t-240.5 -49 q-233 0 -355.5 119.5t-122.5 329.5zM385 653h383v60q0 36 -8 67t-27.5 62t-60.5 49t-99 18q-44 0 -78 -13t-54 -33.5t-33 -50t-18 -59t-5 -63.5v-37z" />
<glyph unicode="f" horiz-adv-x="829" d="M55 965q0 63 18.5 88.5t69.5 25.5h74v58q0 399 383 399q161 0 262 -98q28 -27 32 -52q2 -8 2 -15q0 -17 -8 -33q-12 -22 -40 -50q-51 -50 -91 -50q-27 0 -48 24q-38 41 -103 41q-102 0 -102 -117v-107h219q51 0 69.5 -25.5t18.5 -88.5t-18.5 -89t-69.5 -26h-219v-754 q0 -63 -33 -86.5t-111 -23.5q-77 0 -110 23.5t-33 86.5v754h-74q-51 0 -69.5 26t-18.5 89z" />
<glyph unicode="g" horiz-adv-x="1099" d="M39 -115q0 84 51 148.5t135 101.5q-96 55 -96 162q0 58 32.5 108t86.5 82q-160 91 -160 283v18q0 166 121 260.5t328 94.5q144 0 262 -56q64 41 135.5 66t122.5 25q43 0 59.5 -22.5t16.5 -76.5t-16.5 -76t-59.5 -22h-125q51 -81 51 -176v-55q0 -146 -124 -237t-339 -91 q-60 0 -125 10q-24 -24 -24 -51q0 -45 67 -55l299 -39q180 -24 252 -113t72 -246q0 -76 -31.5 -142.5t-93.5 -119t-163.5 -82.5t-231.5 -30q-244 0 -373 85.5t-129 245.5zM311 -76q0 -74 58.5 -112.5t171.5 -38.5q245 0 245 149q0 60 -32 92t-117 43l-137 17l-72 10 q-117 -49 -117 -160zM352 776q0 -75 48 -113t137 -38q88 0 135 38t47 113q0 77 -45 120.5t-137 43.5t-138.5 -44t-46.5 -120z" />
<glyph unicode="h" horiz-adv-x="1222" d="M131 96v1336q0 63 33 86.5t110 23.5q78 0 111 -23.5t33 -86.5v-465q32 38 60.5 64t70.5 54.5t95.5 43t117.5 14.5q154 0 247 -98t93 -263v-686q0 -62 -34 -86t-112 -24q-77 0 -110 23.5t-33 86.5v629q0 184 -160 184q-82 0 -142.5 -49t-92.5 -125v-639q0 -63 -33 -86.5 t-111 -23.5q-77 0 -110 23.5t-33 86.5z" />
<glyph unicode="i" horiz-adv-x="542" d="M127 96q0 -63 33 -86.5t110 -23.5q78 0 111 23.5t33 86.5v926q0 63 -33.5 87t-110.5 24t-110 -24t-33 -87v-926zM127 1352v96q0 54 36 75t107 21t107.5 -21t36.5 -75v-96q0 -54 -36.5 -75.5t-107.5 -21.5t-107 21.5t-36 75.5z" />
<glyph unicode="j" horiz-adv-x="561" d="M-7 -266q3 28 30 59q65 74 93.5 145t28.5 171v913q0 63 33.5 87t110.5 24t110 -24t33 -87v-911q0 -278 -211 -502q-28 -29 -63 -29q-45 0 -103 49q-34 28 -49 53q-13 20 -13 43v9zM145 1352v96q0 54 36.5 75t107.5 21t107 -21t36 -75v-96q0 -54 -36 -75.5t-107 -21.5 t-107.5 21.5t-36.5 75.5z" />
<glyph unicode="k" horiz-adv-x="1153" d="M131 96v1336q0 63 33 86.5t110 23.5q78 0 111 -23.5t33 -86.5v-752l317 367q47 54 84.5 70t130.5 16q129 0 129 -58q0 -33 -43 -76l-282 -307l327 -563q33 -56 33 -80q0 -33 -31.5 -48t-107.5 -15q-84 0 -114.5 13t-61.5 69l-242 430l-139 -142v-260q0 -63 -33 -86.5 t-111 -23.5q-77 0 -110 23.5t-33 86.5z" />
<glyph unicode="l" horiz-adv-x="550" d="M131 104v1328q0 63 33 86.5t110 23.5q78 0 111 -23.5t33 -86.5v-1328q0 -63 -33 -86.5t-111 -23.5q-77 0 -110 23.5t-33 86.5z" />
<glyph unicode="m" horiz-adv-x="1783" d="M127 98v928q0 60 32 83.5t107 23.5t107.5 -23.5t32.5 -83.5v-55q124 172 335 172q191 0 267 -197q131 197 350 197q141 0 222 -100.5t81 -256.5v-688q0 -63 -33 -86.5t-110 -23.5q-78 0 -111 23.5t-33 86.5v631q0 180 -129 180q-85 0 -139 -54t-68 -120v-637 q0 -63 -33 -86.5t-110 -23.5t-110 23.5t-33 86.5v631q0 180 -138 180q-43 0 -79.5 -17t-60.5 -44t-38.5 -55t-21.5 -56v-639q0 -63 -33 -86.5t-111 -23.5q-77 0 -110 23.5t-33 86.5z" />
<glyph unicode="n" horiz-adv-x="1218" d="M127 98v928q0 60 32 83.5t107 23.5t107.5 -23.5t32.5 -83.5v-63q158 180 366 180q154 0 239 -97t85 -243v-705q0 -63 -33 -86.5t-111 -23.5q-77 0 -110 23.5t-33 86.5v627q0 36 -5.5 64t-20 57.5t-48 46t-82.5 16.5q-156 0 -239 -174v-637q0 -63 -33 -86.5t-111 -23.5 q-77 0 -110 23.5t-33 86.5z" />
<glyph unicode="o" horiz-adv-x="1198" d="M102 406v299q0 212 129 325t369 113q236 0 366 -113.5t130 -324.5v-291q0 -210 -130.5 -324.5t-367.5 -114.5t-366.5 113.5t-129.5 317.5zM389 430q0 -116 57 -168.5t152 -52.5q96 0 153.5 52.5t57.5 166.5v262q0 114 -57.5 166.5t-153.5 52.5q-95 0 -152 -52.5 t-57 -168.5v-258z" />
<glyph unicode="p" horiz-adv-x="1241" d="M125 -324v1346q0 60 32 83t107 23t107 -23t32 -83v-57q58 76 147 127t198 51q180 0 286.5 -119.5t106.5 -329.5v-276q0 -108 -36.5 -194.5t-98 -139.5t-139 -81t-162.5 -28q-112 0 -184 44.5t-109 107.5v-451q0 -63 -33 -86.5t-111 -23.5q-77 0 -110 23.5t-33 86.5z M412 457q0 -109 60 -178.5t169 -69.5q211 0 211 237v199q0 264 -209 264q-92 0 -161.5 -64t-69.5 -175v-213z" />
<glyph unicode="q" horiz-adv-x="1249" d="M102 403v304q0 196 116.5 316t297.5 120q215 0 324 -146v25q0 60 32 83t107 23t107 -23t32 -83v-1346q0 -63 -33 -86.5t-110 -23.5q-78 0 -111 23.5t-33 86.5v441q-56 -63 -130 -102.5t-187 -39.5q-178 0 -295 116.5t-117 311.5zM389 434q0 -100 52.5 -162.5t156.5 -62.5 q116 0 174.5 70t58.5 202v178q0 112 -59.5 181t-163.5 69q-64 0 -109.5 -23t-68 -62t-32 -79.5t-9.5 -87.5v-223z" />
<glyph unicode="r" horiz-adv-x="784" d="M127 98v924q0 60 32 83t107 23q76 0 108 -23t32 -83v-94q51 92 126.5 152.5t165.5 60.5q60 1 78 -33q11 -21 12 -56q0 -20 -4 -44q-13 -75 -37 -106q-22 -28 -53 -28h-6q-4 0 -18 1.5t-19 1.5q-91 0 -152 -59t-85 -138v-582q0 -63 -33 -86.5t-111 -23.5q-77 0 -110 23.5 t-33 86.5z" />
<glyph unicode="s" horiz-adv-x="956" d="M76 217q-1 6 -1 12q1 16 7 30q10 19 26 34.5t44 32.5q50 30 87 30q6 0 13 -1q42 -6 67 -60q20 -43 68 -69.5t109 -26.5q64 0 102.5 29t38.5 77q0 34 -30.5 60.5t-79 47t-107 41.5t-117.5 50t-107.5 66t-79 97t-30.5 136q0 153 110.5 246.5t292.5 93.5q139 0 238 -61 t135 -164q7 -19 7 -35q0 -66 -111 -90q-36 -9 -61 -9q-13 0 -25 3q-30 8 -45 42q-39 86 -154 86q-129 0 -129 -96q0 -32 30.5 -57t79 -44t107 -39.5t117.5 -50t107.5 -68t79 -101t30.5 -142.5q0 -150 -108.5 -246t-290.5 -96q-304 0 -402 189q-14 30 -18 53z" />
<glyph unicode="t" horiz-adv-x="806" d="M25 965q0 63 18.5 88.5t69.5 25.5h73v178q0 61 32 84t108 23t107.5 -23t31.5 -84v-178h147q51 0 69.5 -25.5t18.5 -88.5t-18.5 -89t-69.5 -26h-139v-463q0 -91 30 -122.5t124 -31.5h6q53 0 71.5 -25.5t18.5 -90.5t-18.5 -91t-71.5 -26h-70q-79 0 -144 17t-119 54t-84 104 t-30 159v516h-73q-51 0 -69.5 26t-18.5 89z" />
<glyph unicode="u" horiz-adv-x="1218" d="M121 315v705q0 63 33 86.5t110 23.5q78 0 112 -24t34 -86v-631q0 -96 37 -138t108 -42q67 0 135 38.5t115 104.5v668q0 63 33 86.5t110 23.5q78 0 111 -23.5t33 -86.5v-924q0 -60 -32 -83t-108 -23q-75 0 -107 23t-32 83v19q-78 -66 -158.5 -103t-189.5 -37 q-169 0 -256.5 89.5t-87.5 250.5z" />
<glyph unicode="v" horiz-adv-x="1075" d="M43 1004q-9 26 -9 47q0 33 21 51q35 32 119 31q80 0 116.5 -19.5t53.5 -73.5l121 -397q50 -170 86 -410h4q29 217 86 410l121 406q15 50 48.5 67t107.5 17q126 0 126 -75q0 -19 -8 -44l-317 -944q-16 -48 -56 -67t-108 -19q-87 0 -128.5 18t-59.5 68z" />
<glyph unicode="w" horiz-adv-x="1548" d="M49 1014q-6 22 -6 39q0 33 21 51q32 28 118 29q68 0 101 -18t45 -68l92 -420q47 -208 67 -394h5q20 173 67 394l88 422q10 49 44.5 66.5t103.5 17.5q64 0 100.5 -19t46.5 -65l86 -424q45 -205 64 -392h4q24 204 67 394l97 428q10 46 38 62t86 16q74 0 102 -26 q18 -17 18 -47q0 -16 -5 -36l-235 -958q-22 -82 -179 -82q-76 0 -115.5 17.5t-49.5 64.5l-74 315q-48 214 -64 369h-4q-18 -151 -73 -412l-56 -270q-19 -84 -172 -84q-78 0 -118.5 17.5t-53.5 66.5z" />
<glyph unicode="x" horiz-adv-x="1064" d="M52 16q-11 12 -11 29q0 25 22 61l299 457l-290 457q-17 28 -17 50q1 20 15 34q30 30 116 29q69 0 108 -17.5t64 -58.5l174 -297l166 289q34 55 64.5 69.5t116.5 14.5q82 -1 107 -29q10 -11 10 -27q0 -25 -23 -63l-299 -453l295 -463q16 -27 16 -48q1 -21 -15 -35 q-32 -29 -118 -29q-70 0 -109.5 17t-64.5 58l-172 301l-164 -290q-32 -56 -62.5 -70t-117.5 -14q-84 0 -110 28z" />
<glyph unicode="y" horiz-adv-x="1046" d="M31 1006q-10 28 -10 50q0 29 17 46q31 31 120 31q85 0 120 -19t52 -74l207 -708l215 715q15 51 47 68.5t106 17.5q90 0 117 -28q16 -16 16 -42q0 -21 -10 -49l-360 -983q-58 -159 -138.5 -260t-189.5 -181q-39 -26 -67 -26q-10 0 -18 3q-34 11 -75 68q-29 38 -39 66 t0 53.5t43 46.5q71 45 116.5 92t80.5 127z" />
<glyph unicode="z" horiz-adv-x="985" d="M62 134q2 26 22 54l479 699h-364q-53 0 -71.5 26t-18.5 91t18.5 90.5t71.5 25.5h643q36 0 56 -18.5t34 -59.5q10 -31 6 -56.5t-25 -55.5l-473 -697h416q53 0 71.5 -25.5t18.5 -90.5t-18.5 -91t-71.5 -26h-696q-36 0 -56 18.5t-34 59.5q-8 25 -8 47v9z" />
<glyph unicode="{" horiz-adv-x="796" d="M45 625q0 53 15.5 80.5t52.5 31.5q92 9 119.5 54t27.5 170v323q0 129 76 207t209 78h71q51 0 71 -28t20 -91q0 -62 -20 -89.5t-71 -27.5h-14q-94 0 -94 -98v-367q0 -90 -57 -153.5t-144 -81.5v-4q80 -14 140.5 -85t60.5 -161v-334q0 -64 23.5 -92.5t80.5 -28.5h6 q51 0 71 -27t20 -89q0 -64 -20 -92.5t-71 -28.5h-73q-133 0 -209 81t-76 212v372q0 137 -147 158q-37 4 -52.5 31t-15.5 80z" />
<glyph unicode="|" horiz-adv-x="583" d="M158 -442v1988q0 60 31 82.5t104 22.5t104 -22.5t31 -82.5v-1988q0 -60 -31 -82.5t-104 -22.5t-104 22.5t-31 82.5z" />
<glyph unicode="}" horiz-adv-x="806" d="M98 1448q0 64 19.5 92.5t70.5 28.5h74q133 0 209 -81t76 -212v-373q0 -137 147 -158q37 -4 52.5 -30.5t15.5 -79.5t-15.5 -81t-52.5 -32q-92 -9 -119.5 -53.5t-27.5 -169.5v-324q0 -129 -76 -206.5t-209 -77.5h-72q-51 0 -70.5 27.5t-19.5 91.5q0 62 19.5 89t70.5 27h15 q94 0 94 99v366q0 90 57 154t144 82v4q-80 14 -140.5 85t-60.5 161v333q0 64 -23.5 92.5t-80.5 28.5h-7q-51 0 -70.5 27.5t-19.5 89.5z" />
<glyph unicode="~" d="M203 662q28 41 109.5 94t162.5 53q54 0 110 -16.5t94.5 -37t85.5 -37t85 -16.5q68 0 131 60q24 24 58 18t69 -41q68 -68 25 -123q-42 -57 -114.5 -98t-144.5 -41q-66 0 -126 16.5t-96.5 37t-81 37t-83.5 16.5q-38 0 -66.5 -16t-66.5 -52q-24 -24 -58 -18t-69 41 q-64 64 -24 123z" />
<glyph unicode="&#xa1;" horiz-adv-x="641" d="M186 -274l35 892q1 44 22.5 60t75.5 16q53 0 74.5 -17t22.5 -61l37 -890q3 -58 -29.5 -80.5t-104.5 -22.5t-104 22.5t-29 80.5zM190 963v92q0 52 30.5 72t96.5 20t96.5 -20t30.5 -72v-92q0 -52 -30.5 -72.5t-96.5 -20.5t-96.5 20.5t-30.5 72.5z" />
<glyph unicode="&#xa2;" d="M225 424v270q0 171 88 280.5t234 149.5v111q0 64 32.5 87.5t110.5 23.5q77 0 110.5 -23.5t33.5 -87.5v-107q119 -27 195.5 -101.5t105.5 -176.5q17 -56 -11.5 -86.5t-99.5 -44.5q-71 -17 -102 -3t-45 66q-36 125 -179 125q-186 0 -186 -256v-225q0 -112 48 -163.5 t142 -51.5q121 0 181 123q39 80 161 8q38 -23 56.5 -44t21.5 -51.5t-20 -68.5q-80 -150 -268 -188v-111q0 -64 -33.5 -87t-110.5 -23q-78 0 -110.5 23t-32.5 87v113q-151 33 -236.5 143.5t-85.5 288.5z" />
<glyph unicode="&#xa3;" d="M109 723q0 66 20.5 94.5t73.5 28.5h96q-3 25 -17 104t-14 133q0 208 139.5 324.5t364.5 116.5q157 0 271 -77t165 -218q36 -97 -108 -127q-67 -13 -93 -2t-46 53q-31 68 -78.5 102.5t-122.5 34.5q-93 0 -146 -52t-53 -148q0 -39 15 -128.5t18 -115.5h264q53 0 73.5 -28.5 t20.5 -94.5q0 -63 -20.5 -91t-73.5 -28h-256q0 -198 -102 -362h583q53 0 74 -28.5t21 -94.5q0 -63 -21 -91t-74 -28h-835q-33 0 -52.5 17.5t-31.5 56.5q-11 27 -9.5 51.5t21.5 50.5q70 88 104.5 181t34.5 212v35h-112q-53 0 -73.5 28t-20.5 91z" />
<glyph unicode="&#xa4;" d="M55 594q0 60 19 86.5t65 26.5h103v73h-103q-46 0 -65 25.5t-19 81.5q0 60 19 86t65 26h103v27q0 217 135 356.5t362 139.5q118 0 207 -22.5t146.5 -65.5t92.5 -92.5t60 -114.5q22 -58 -9 -89.5t-108 -47.5q-46 -14 -76 -8.5t-44 20t-29 47.5q-58 133 -227 133 q-105 0 -160 -67t-55 -179v-37h239q46 0 65 -26t19 -86q0 -107 -84 -107h-239v-73h239q46 0 65 -26.5t19 -86.5q0 -56 -19 -81.5t-65 -25.5h-239v-26q0 -112 55 -179t160 -67q169 0 227 133q15 33 29 47.5t44 20.5t76 -8q76 -16 107.5 -48t9.5 -90q-25 -65 -60 -114.5 t-92.5 -92.5t-146.5 -65.5t-207 -22.5q-227 0 -362 139.5t-135 356.5v16h-103q-46 0 -65 25.5t-19 81.5z" />
<glyph unicode="&#xa5;" d="M63 1452q0 33 27.5 47t106.5 14q89 0 120.5 -11t57.5 -62l295 -586l276 580q27 55 58.5 67t138.5 12q129 0 129 -49q0 -18 -25 -63l-434 -813v-21h209q50 0 69 -27.5t19 -90.5q0 -60 -19 -86.5t-69 -26.5h-209v-236q0 -65 -34 -89.5t-113 -24.5q-80 0 -114 24.5t-34 89.5 v236h-221q-48 0 -68 26.5t-20 86.5q0 63 19.5 90.5t68.5 27.5h221v21l-430 798q-25 48 -25 66z" />
<glyph unicode="&#xa6;" horiz-adv-x="575" d="M158 342q0 60 31 82t104 22t104 -22t31 -82v-786q0 -60 -31 -82.5t-104 -22.5t-104 22.5t-31 82.5v786zM158 760v786q0 60 31 82.5t104 22.5t104 -22.5t31 -82.5v-786q0 -60 -31 -82.5t-104 -22.5t-104 22.5t-31 82.5z" />
<glyph unicode="&#xa7;" horiz-adv-x="1085" d="M111 1231q0 51 22.5 101.5t68.5 96.5t128 74.5t188 28.5q280 0 352 -209q18 -47 -7.5 -75t-88.5 -42q-52 -12 -80 -4.5t-41 39.5q-39 80 -135 80q-62 0 -91.5 -23t-29.5 -59q0 -41 55.5 -86t206.5 -111q159 -70 230.5 -144.5t71.5 -192.5q0 -84 -47.5 -150.5 t-131.5 -105.5q39 -24 68.5 -48.5t61 -61t48.5 -84t17 -103.5q0 -142 -125.5 -239t-312.5 -97q-284 0 -377 184q-22 36 -19.5 65t19.5 48.5t53 40.5q56 35 96 29.5t66 -56.5q19 -43 62.5 -69.5t101.5 -26.5q127 0 127 121q0 61 -60 109.5t-188 107.5q-70 31 -118.5 60.5 t-90.5 68.5t-63 88.5t-21 109.5q0 83 46 145.5t122 96.5q-89 55 -136.5 125t-47.5 168zM395 696q0 -54 51.5 -95.5t114.5 -41.5q65 0 98 34t33 95t-51 97t-123 36q-55 0 -89 -34.5t-34 -90.5z" />
<glyph unicode="&#xa8;" horiz-adv-x="880" d="M109 1341v105q0 49 28.5 68.5t91.5 19.5t92 -19.5t29 -68.5v-105q0 -49 -28.5 -68.5t-90.5 -19.5q-63 0 -92.5 19.5t-29.5 68.5zM530 1341v105q0 49 29 68.5t92 19.5t92 -19.5t29 -68.5v-105q0 -49 -28.5 -68.5t-90.5 -19.5q-63 0 -93 19.5t-30 68.5z" />
<glyph unicode="&#xa9;" horiz-adv-x="1552" d="M41 731q0 157 58 293t157 229.5t233.5 147t284.5 53.5q167 0 306 -55t233 -151.5t146 -229t52 -287.5q0 -148 -59 -283.5t-158 -233.5t-235 -156t-285 -58q-214 0 -380 89.5t-259.5 256t-93.5 385.5zM219 733q0 -158 66 -286.5t194.5 -205.5t296.5 -77q113 0 216.5 46 t178 123t118.5 182t44 218q0 154 -67.5 280t-195.5 201.5t-294 75.5q-164 0 -292.5 -75.5t-196.5 -202t-68 -279.5zM436 623q0 -161 95 -245.5t253 -84.5q110 0 185 40t110 109q19 46 9 70.5t-52 50.5q-91 54 -121 -8q-15 -29 -27.5 -45.5t-37.5 -30.5t-59 -14 q-144 0 -144 158v186q0 170 137 170q44 0 77.5 -26t45.5 -66q9 -37 32.5 -47.5t76.5 0.5q52 11 72 33t8 63q-27 103 -110 159t-202 56q-147 0 -247.5 -87t-100.5 -245v-196z" />
<glyph unicode="&#xaa;" horiz-adv-x="888" d="M82 915v9q0 138 116 203.5t369 64.5v22q0 136 -135 136q-53 0 -84.5 -18.5t-58.5 -53.5q-27 -36 -47.5 -40.5t-65.5 19.5q-30 14 -46 29.5t-20.5 37.5t13.5 48q45 78 122 115t206 37q158 0 252 -83.5t94 -234.5v-436q0 -48 -24 -65t-83 -17q-56 0 -79 17t-23 65v21 q-119 -111 -266 -111q-102 0 -171 64t-69 171zM289 930q0 -37 27 -58.5t71 -21.5q105 0 180 84v117q-86 4 -143.5 -3t-85.5 -24.5t-38.5 -37.5t-10.5 -48v-8z" />
<glyph unicode="&#xab;" horiz-adv-x="1193" d="M119 541q-48 73 0 145l243 354q27 41 59 44t81 -27q50 -33 63 -61t-12 -70l-217 -312l217 -313q25 -42 12 -70t-63 -61q-49 -30 -81 -27t-59 43zM618 541q-48 73 0 145l244 354q27 41 58.5 44t80.5 -27q50 -33 63.5 -61t-11.5 -70l-217 -312l217 -313q25 -42 11.5 -70 t-63.5 -61q-49 -30 -80.5 -27t-58.5 43z" />
<glyph unicode="&#xac;" d="M115 647q0 55 17 79t63 24h921q52 0 71 -26.5t19 -88.5v-350q0 -44 -22.5 -61t-75.5 -17t-75.5 17t-22.5 61v260h-815q-46 0 -63 23.5t-17 78.5z" />
<glyph unicode="&#xad;" horiz-adv-x="1013" d="M102 618q0 60 19 86.5t65 26.5h641q46 0 65 -26.5t19 -86.5q0 -57 -19 -82.5t-65 -25.5h-641q-46 0 -65 25.5t-19 82.5z" />
<glyph unicode="&#xae;" horiz-adv-x="997" d="M70 1096q0 178 125.5 303t304.5 125q177 0 302.5 -125.5t125.5 -302.5q0 -178 -124.5 -298t-303.5 -120q-180 0 -305 120.5t-125 297.5zM178 1096q0 -132 93 -227t229 -95q137 0 228 94.5t91 227.5q0 137 -94 234t-225 97q-139 0 -230.5 -95.5t-91.5 -235.5zM348 913v363 q0 22 13 30.5t42 8.5h119q75 0 113.5 -36t38.5 -93v-19q0 -37 -23 -69.5t-65 -50.5l63 -121q8 -16 8 -27q0 -18 -47 -18q-28 0 -38 4t-19 22l-64 131h-47v-125q0 -19 -10.5 -25.5t-36.5 -6.5t-36.5 6.5t-10.5 25.5zM442 1110h64q39 0 56.5 13.5t17.5 45.5v13 q0 32 -17.5 45.5t-54.5 13.5h-66v-131z" />
<glyph unicode="&#xaf;" horiz-adv-x="778" d="M94 1434q0 57 18.5 82.5t63.5 25.5h426q43 0 61.5 -25.5t18.5 -82.5q0 -55 -18.5 -80t-61.5 -25h-426q-45 0 -63.5 25t-18.5 80z" />
<glyph unicode="&#xb0;" horiz-adv-x="851" d="M82 1200q0 140 101 238t241 98q151 0 248.5 -93.5t97.5 -242.5q0 -140 -101.5 -238t-244.5 -98q-148 0 -245 94.5t-97 241.5zM266 1200q0 -65 43.5 -111.5t112.5 -46.5q68 0 114 44t46 114q0 67 -44.5 113.5t-115.5 46.5q-65 0 -110.5 -45t-45.5 -115z" />
<glyph unicode="&#xb1;" d="M137 117q0 62 19 88t71 26h310v285h-310q-52 0 -71 27t-19 90t19 89t71 26h310v311q0 58 29 79t98 21q70 0 99.5 -21t29.5 -79v-311h313q52 0 71 -26t19 -89t-19 -90t-71 -27h-313v-285h313q52 0 71 -26t19 -88q0 -63 -19 -90t-71 -27h-879q-52 0 -71 27t-19 90z" />
<glyph unicode="&#xb2;" horiz-adv-x="722" d="M51 793v47q0 199 191 295q20 11 55.5 27.5t57 28t45 26.5t35 32.5t11.5 36.5q0 31 -21 51.5t-67 20.5q-56 0 -87 -21t-50 -63q-14 -30 -35 -35.5t-63 12.5q-87 32 -55 97q98 176 297 176q138 0 212 -60.5t74 -177.5q0 -48 -22 -89.5t-64.5 -75.5t-84 -57.5t-101.5 -51.5 q-73 -34 -99 -61t-26 -72h309q36 0 50 -20.5t14 -65.5q0 -43 -14.5 -63.5t-49.5 -20.5h-448q-35 0 -49.5 20.5t-14.5 63.5z" />
<glyph unicode="&#xb3;" horiz-adv-x="704" d="M53 1350q30 72 109.5 123t185.5 51q142 0 211.5 -60.5t69.5 -158.5v-11q0 -56 -33 -105t-76 -61q47 -18 79 -61.5t32 -99.5v-21q0 -106 -74.5 -177t-206.5 -71q-110 0 -185 42.5t-106 109.5q-16 40 -5.5 60.5t48.5 39.5q77 36 103 -12q42 -72 129 -72q43 0 67.5 22.5 t24.5 63.5v13q0 38 -27.5 63t-68.5 25h-60q-30 0 -42.5 16.5t-12.5 54.5q0 39 12.5 56.5t42.5 17.5h47q42 0 75.5 25t33.5 59v6q0 33 -22.5 55.5t-65.5 22.5q-91 0 -135 -80q-14 -29 -33 -34.5t-59 10.5q-81 30 -58 88z" />
<glyph unicode="&#xb4;" horiz-adv-x="585" d="M113 1298l123 211q19 32 54 46t95 14q66 0 88.5 -24t-6.5 -62l-174 -207q-20 -26 -44 -37.5t-67 -11.5q-110 0 -69 71z" />
<glyph unicode="&#xb5;" d="M178 -348v1368q0 63 33 86.5t111 23.5t111.5 -23.5t33.5 -86.5v-582q0 -81 45.5 -131.5t136.5 -50.5q85 0 147.5 48t73.5 112v604q0 63 33 86.5t111 23.5q77 0 110 -23.5t33 -86.5v-924q0 -61 -29.5 -83.5t-103.5 -22.5t-103.5 22.5t-29.5 83.5v31q-34 -61 -94.5 -106.5 t-149.5 -45.5q-73 0 -117.5 26.5t-62.5 59.5v-409q0 -63 -33.5 -87t-111.5 -24q-77 0 -110.5 24t-33.5 87z" />
<glyph unicode="&#xb6;" horiz-adv-x="1273" d="M41 924q0 254 167.5 414.5t446.5 160.5h486q46 0 64 -24.5t18 -81.5q0 -56 -18 -80.5t-64 -24.5h-72v-1489q0 -54 -28 -74t-93 -20t-93 20t-28 74v1489h-127v-852h-155q-243 0 -373.5 132.5t-130.5 355.5z" />
<glyph unicode="&#xb7;" horiz-adv-x="526" d="M119 696q0 58 33.5 80.5t105.5 22.5t105.5 -22.5t33.5 -80.5v-118q0 -58 -32.5 -80.5t-104.5 -22.5t-105.5 22.5t-33.5 80.5z" />
<glyph unicode="&#xb8;" horiz-adv-x="954" d="M236 -283q27 77 86 41q27 -17 67.5 -30t73.5 -13q69 0 69 58q0 53 -92 53h-20t-18 2t-18 6t-10 12.5t-5 20.5v164h176v-94q82 0 128 -49.5t46 -118.5v-15q0 -72 -65.5 -126t-172.5 -54q-140 0 -231 68q-33 24 -14 75z" />
<glyph unicode="&#xb9;" horiz-adv-x="589" d="M33 1327q-5 41 4 59.5t39 24.5q3 1 26.5 6t35 7.5t33 9.5t34.5 13.5t26 17t19 22.5q18 35 96 35q41 0 58.5 -13t17.5 -47v-592h84q34 0 47.5 -19t13.5 -63q0 -41 -13.5 -59t-47.5 -18h-377q-34 0 -47.5 18t-13.5 59q0 44 13.5 63t47.5 19h94v404l-131 -12q-30 -3 -43 12 t-16 53z" />
<glyph unicode="&#xba;" horiz-adv-x="870" d="M72 993v230q0 149 100 225t262 76q107 0 187.5 -31t130 -102.5t49.5 -178.5v-219q0 -81 -29 -142t-80.5 -97.5t-116 -54t-141.5 -17.5q-171 0 -266.5 78.5t-95.5 232.5zM276 1004q0 -67 41 -110.5t117 -43.5q160 0 160 154v202q0 72 -41 111t-119 39q-80 0 -119 -42.5 t-39 -107.5v-202z" />
<glyph unicode="&#xbb;" horiz-adv-x="1196" d="M131.5 231q-13.5 28 11.5 70l217 313l-217 312q-25 42 -11.5 70t63.5 61q49 30 80.5 27t58.5 -44l244 -354q48 -72 0 -145l-244 -355q-27 -40 -58.5 -43t-80.5 27q-50 33 -63.5 61zM631 231q-13 28 12 70l217 313l-217 312q-25 42 -12 70t63 61q49 30 81 27t59 -44 l243 -354q48 -72 0 -145l-243 -355q-27 -40 -59 -43t-81 27q-50 33 -63 61z" />
<glyph unicode="&#xbc;" horiz-adv-x="1542" d="M51 1305q-5 41 4 59.5t39 24.5q5 1 27 5.5t34 7.5t33.5 9.5t34.5 13.5t26 17t19 22q18 35 97 35q41 0 58 -12.5t17 -46.5v-576h84q35 0 48.5 -19t13.5 -63q0 -41 -14 -59t-48 -18h-377q-34 0 -47.5 18t-13.5 59q0 44 13.5 63t47.5 19h95v387l-131 -12q-30 -3 -43.5 12.5 t-16.5 53.5zM329.5 12q-19.5 18 0.5 54l747 1359q35 61 59 74.5t91 13.5q110 0 61 -81l-745 -1360q-31 -54 -52.5 -66t-87.5 -12q-54 0 -73.5 18zM838.5 316.5q2.5 22.5 21.5 50.5l338 516q17 22 34.5 28.5t36 -0.5t46.5 -28q37 -31 43 -52.5t-17 -56.5l-276 -409h133v57 q0 41 21 56.5t71 15.5q49 0 70.5 -16t21.5 -56v-57h48q36 0 49.5 -20t13.5 -64q0 -43 -13.5 -61.5t-49.5 -18.5h-48v-99q0 -44 -22.5 -60.5t-75.5 -16.5q-54 0 -75 16t-21 61v99h-262q-33 0 -50.5 15t-29.5 50q-10 28 -7.5 50.5z" />
<glyph unicode="&#xbd;" horiz-adv-x="1640" d="M51 1305q-5 41 4 59.5t39 24.5q5 1 27 5.5t34 7.5t33.5 9.5t34.5 13.5t26 17t19 22q18 35 97 35q41 0 58 -12.5t17 -46.5v-576h84q35 0 48.5 -19t13.5 -63q0 -41 -14 -59t-48 -18h-377q-34 0 -47.5 18t-13.5 59q0 44 13.5 63t47.5 19h95v387l-131 -12q-30 -3 -43.5 12.5 t-16.5 53.5zM329.5 12q-19.5 18 0.5 54l747 1359q35 61 59 74.5t91 13.5q110 0 61 -81l-745 -1360q-31 -54 -52.5 -66t-87.5 -12q-54 0 -73.5 18zM979 190v48q0 198 190 294q20 10 55.5 27t57 28.5t45.5 27t35.5 33t11.5 36.5q0 31 -21 51.5t-67 20.5q-56 0 -87 -21t-50 -63 q-14 -30 -35 -35.5t-63 12.5q-87 32 -56 96q98 177 297 177q138 0 212.5 -60.5t74.5 -177.5q0 -48 -22 -89.5t-64.5 -75.5t-84 -57.5t-101.5 -51.5q-73 -34 -99 -61.5t-26 -72.5h309q35 0 49 -20.5t14 -65.5q0 -43 -14 -63.5t-49 -20.5h-449q-35 0 -49 20.5t-14 63.5z" />
<glyph unicode="&#xbe;" horiz-adv-x="1544" d="M70 1286q30 72 109.5 123t185.5 51q142 0 211 -60t69 -159v-10q0 -56 -32.5 -105t-75.5 -61q47 -18 78.5 -62t31.5 -100v-20q0 -106 -74.5 -177t-205.5 -71q-110 0 -185 42t-106 109q-16 39 -5.5 61t48.5 40q75 36 102 -13q23 -39 53 -55t76 -16q43 0 67.5 22.5 t24.5 63.5v12q0 38 -27.5 63t-68.5 25h-59q-30 0 -43 17.5t-13 54.5q0 39 13 56.5t43 17.5h47q42 0 75 24.5t33 59.5v6q0 33 -22.5 55.5t-65.5 22.5q-91 0 -135 -80q-14 -29 -33 -35t-59 10q-80 29 -57 88zM329.5 12q-19.5 18 0.5 54l747 1359q35 61 59 74.5t91 13.5 q110 0 61 -81l-745 -1360q-31 -54 -52.5 -66t-87.5 -12q-54 0 -73.5 18zM838.5 316.5q2.5 22.5 21.5 50.5l338 516q17 22 34.5 28.5t36 -0.5t46.5 -28q37 -31 43 -52.5t-17 -56.5l-276 -409h133v57q0 41 21 56.5t71 15.5q49 0 70.5 -16t21.5 -56v-57h48q36 0 49.5 -20 t13.5 -64q0 -43 -13.5 -61.5t-49.5 -18.5h-48v-99q0 -44 -22.5 -60.5t-75.5 -16.5q-54 0 -75 16t-21 61v99h-262q-33 0 -50.5 15t-29.5 50q-10 28 -7.5 50.5z" />
<glyph unicode="&#xbf;" horiz-adv-x="925" d="M72 -80q0 59 18 113t47 96t63.5 82t69.5 78.5t64 76.5t47 84t18 95v10q0 53 25.5 72.5t89.5 19.5q65 0 91 -18.5t26 -71.5v-27q0 -84 -29.5 -157.5t-71.5 -125.5t-83.5 -98.5t-71 -96.5t-29.5 -99q0 -74 44 -119t130 -45q57 0 101 22.5t88 69.5q32 34 65 30t72 -48 q42 -45 46 -82.5t-34 -85.5q-127 -146 -358 -146q-190 0 -309 108.5t-119 262.5zM387 907v92q0 52 30.5 72.5t96.5 20.5t96.5 -20.5t30.5 -72.5v-92q0 -52 -30.5 -72t-96.5 -20t-96.5 20t-30.5 72z" />
<glyph unicode="&#xc0;" horiz-adv-x="1277" d="M35 100l424 1323q17 54 63 73.5t140 19.5q71 0 114.5 -21t59.5 -72l407 -1317q20 -61 -14 -89.5t-111 -28.5q-79 0 -114 17t-48 67l-88 309h-473l-96 -313q-15 -47 -47 -63.5t-102 -16.5q-79 0 -106.5 26.5t-8.5 85.5zM341.5 1958q22.5 24 88.5 24q116 0 150 -59 l122 -211q41 -72 -69 -72q-42 0 -66.5 12t-44.5 38l-174 206q-29 38 -6.5 62zM469 623h332l-160 571z" />
<glyph unicode="&#xc1;" horiz-adv-x="1277" d="M35 100l424 1323q17 54 63 73.5t140 19.5q71 0 114.5 -21t59.5 -72l407 -1317q20 -61 -14 -89.5t-111 -28.5q-79 0 -114 17t-48 67l-88 309h-473l-96 -313q-15 -47 -47 -63.5t-102 -16.5q-79 0 -106.5 26.5t-8.5 85.5zM469 623h332l-160 571zM586 1712l123 211 q19 32 53.5 45.5t95.5 13.5q66 0 88.5 -24t-6.5 -62l-174 -206q-20 -26 -44.5 -38t-66.5 -12q-110 0 -69 72z" />
<glyph unicode="&#xc2;" horiz-adv-x="1277" d="M35 100l424 1323q17 54 63 73.5t140 19.5q71 0 114.5 -21t59.5 -72l407 -1317q20 -61 -14 -89.5t-111 -28.5q-79 0 -114 17t-48 67l-88 309h-473l-96 -313q-15 -47 -47 -63.5t-102 -16.5q-79 0 -106.5 26.5t-8.5 85.5zM381 1700l143 219q19 29 43.5 40t63.5 11 q45 0 72 -11t45 -38l145 -221q19 -29 -6 -47.5t-72 -18.5q-38 0 -60 8t-28.5 16.5t-15.5 27.5l-74 141l-74 -141q-9 -19 -15.5 -27.5t-28.5 -16.5t-60 -8q-47 0 -72 18.5t-6 47.5zM469 623h332l-160 571z" />
<glyph unicode="&#xc3;" horiz-adv-x="1277" d="M35 100l424 1323q17 54 63 73.5t140 19.5q71 0 114.5 -21t59.5 -72l407 -1317q20 -61 -14 -89.5t-111 -28.5q-79 0 -114 17t-48 67l-88 309h-473l-96 -313q-15 -47 -47 -63.5t-102 -16.5q-79 0 -106.5 26.5t-8.5 85.5zM297 1821q38 52 95 90.5t120 38.5q48 1 94 -19.5 t82.5 -41.5t61.5 -21q7 0 13 1t11.5 3t10 3.5t9.5 6t8 6.5t8.5 8t7.5 8.5t8 9.5t8 9q18 22 48 19t62 -33q54 -56 21 -107q-39 -53 -94.5 -92t-118.5 -39q-53 0 -98.5 21t-80 42t-61.5 21q-7 0 -13 -1t-11.5 -3t-10 -3.5t-9.5 -6t-8 -6.5t-8.5 -8t-7.5 -8.5t-8 -9.5t-8 -9 q-18 -22 -48.5 -19t-62.5 33q-53 55 -20 107zM469 623h332l-160 571z" />
<glyph unicode="&#xc4;" horiz-adv-x="1277" d="M35 100l424 1323q17 54 63 73.5t140 19.5q71 0 114.5 -21t59.5 -72l407 -1317q20 -61 -14 -89.5t-111 -28.5q-79 0 -114 17t-48 67l-88 309h-473l-96 -313q-15 -47 -47 -63.5t-102 -16.5q-79 0 -106.5 26.5t-8.5 85.5zM309 1761v105q0 49 29 68.5t92 19.5t92 -19.5 t29 -68.5v-105q0 -49 -28.5 -68.5t-90.5 -19.5q-63 0 -93 19.5t-30 68.5zM469 623h332l-160 571zM731 1761v105q0 49 29 68.5t92 19.5t92 -19.5t29 -68.5v-105q0 -49 -28.5 -68.5t-90.5 -19.5q-63 0 -93 19.5t-30 68.5z" />
<glyph unicode="&#xc5;" horiz-adv-x="1277" d="M35 100l424 1323q17 54 63 73.5t140 19.5q71 0 114.5 -21t59.5 -72l407 -1317q20 -61 -14 -89.5t-111 -28.5q-79 0 -114 17t-48 67l-88 309h-473l-96 -313q-15 -47 -47 -63.5t-102 -16.5q-79 0 -106.5 26.5t-8.5 85.5zM438 1772q0 89 60 145.5t149 56.5q92 0 152.5 -56 t60.5 -146q0 -87 -61 -143t-152 -56q-88 0 -148.5 56.5t-60.5 142.5zM469 623h332l-160 571zM567 1772q0 -33 23 -54.5t57 -21.5q37 0 60.5 21t23.5 55q0 36 -23.5 57.5t-60.5 21.5q-35 0 -57.5 -21.5t-22.5 -57.5z" />
<glyph unicode="&#xc6;" horiz-adv-x="1763" d="M20 100l611 1274q61 125 184 125h762q57 0 78.5 -30.5t21.5 -100.5q0 -69 -21.5 -99t-78.5 -30h-475v-352h428q54 0 75 -29.5t21 -97.5q0 -67 -21 -96t-75 -29h-428v-375h475q57 0 78.5 -30.5t21.5 -100.5q0 -69 -21.5 -99t-78.5 -30h-584q-101 0 -143.5 31t-42.5 114 v162h-383l-109 -235q-24 -51 -56.5 -68.5t-108.5 -17.5q-82 0 -120 28t-10 86zM539 551h268v577z" />
<glyph unicode="&#xc7;" horiz-adv-x="1239" d="M111 510v465q0 121 34.5 220t102 173t175 115t247.5 41q207 0 328 -90t167 -236q18 -59 -11.5 -89t-104.5 -46q-74 -15 -103 -3t-49 60q-30 75 -84.5 110.5t-146.5 35.5q-127 0 -193.5 -85.5t-66.5 -234.5v-397q0 -148 68 -230.5t194 -82.5q171 0 231 157q18 48 59.5 56 t110.5 -21q31 -13 50 -26.5t30.5 -31.5t10.5 -42t-13 -56q-40 -105 -155 -190.5t-273 -101.5v-62q87 0 138.5 -45t51.5 -123v-14q0 -72 -65 -126t-172 -54q-75 0 -135.5 20t-96.5 47q-33 25 -14 76q27 77 86 41q27 -17 67.5 -30t73.5 -13q70 0 70 57q0 53 -92 53 q-18 0 -25.5 0.5t-21 3.5t-19.5 12.5t-6 24.5v134q-224 25 -336 159.5t-112 368.5z" />
<glyph unicode="&#xc8;" horiz-adv-x="1087" d="M131 145v1209q0 83 42.5 114t143.5 31h584q57 0 78.5 -30.5t21.5 -100.5q0 -69 -21.5 -99t-78.5 -30h-475v-352h428q54 0 75 -29.5t21 -97.5q0 -67 -21 -96t-75 -29h-428v-375h475q57 0 78.5 -30.5t21.5 -100.5q0 -69 -21.5 -99t-78.5 -30h-584q-101 0 -143.5 31 t-42.5 114zM280.5 1954q22.5 24 88.5 24q61 0 95.5 -13.5t53.5 -45.5l123 -211q41 -72 -70 -72q-42 0 -66 12t-44 38l-174 206q-29 38 -6.5 62z" />
<glyph unicode="&#xc9;" horiz-adv-x="1087" d="M131 145v1209q0 83 42.5 114t143.5 31h584q57 0 78.5 -30.5t21.5 -100.5q0 -69 -21.5 -99t-78.5 -30h-475v-352h428q54 0 75 -29.5t21 -97.5q0 -67 -21 -96t-75 -29h-428v-375h475q57 0 78.5 -30.5t21.5 -100.5q0 -69 -21.5 -99t-78.5 -30h-584q-101 0 -143.5 31 t-42.5 114zM494 1708l122 211q34 59 150 59q66 0 88.5 -24t-6.5 -62l-174 -206q-20 -26 -44.5 -38t-66.5 -12q-110 0 -69 72z" />
<glyph unicode="&#xca;" horiz-adv-x="1087" d="M131 145v1209q0 83 42.5 114t143.5 31h584q57 0 78.5 -30.5t21.5 -100.5q0 -69 -21.5 -99t-78.5 -30h-475v-352h428q54 0 75 -29.5t21 -97.5q0 -67 -21 -96t-75 -29h-428v-375h475q57 0 78.5 -30.5t21.5 -100.5q0 -69 -21.5 -99t-78.5 -30h-584q-101 0 -143.5 31 t-42.5 114zM307 1720l144 219q20 30 44 41t62 11q45 0 72 -11t45 -38l145 -222q19 -29 -6 -47t-72 -18q-38 0 -60 8t-28.5 16t-15.5 27l-74 141l-74 -141q-9 -19 -15.5 -27t-28.5 -16t-60 -8q-47 0 -72 18t-6 47z" />
<glyph unicode="&#xcb;" horiz-adv-x="1087" d="M131 145v1209q0 83 42.5 114t143.5 31h584q57 0 78.5 -30.5t21.5 -100.5q0 -69 -21.5 -99t-78.5 -30h-475v-352h428q54 0 75 -29.5t21 -97.5q0 -67 -21 -96t-75 -29h-428v-375h475q57 0 78.5 -30.5t21.5 -100.5q0 -69 -21.5 -99t-78.5 -30h-584q-101 0 -143.5 31 t-42.5 114zM229 1763v105q0 49 29 68.5t92 19.5t92 -19.5t29 -68.5v-105q0 -49 -28.5 -68.5t-90.5 -19.5q-63 0 -93 19.5t-30 68.5zM651 1763v105q0 49 29 68.5t92 19.5t92 -19.5t29 -68.5v-105q0 -49 -28.5 -68.5t-90.5 -19.5q-63 0 -93 19.5t-30 68.5z" />
<glyph unicode="&#xcc;" horiz-adv-x="577" d="M-20.5 1958q22.5 24 88.5 24q61 0 95.5 -13.5t53.5 -45.5l123 -211q41 -72 -70 -72q-42 0 -66 12t-44 38l-174 206q-29 38 -6.5 62zM141 100v1299q0 65 34 89.5t114 24.5q79 0 113 -24.5t34 -89.5v-1299q0 -65 -34 -89.5t-113 -24.5q-80 0 -114 24.5t-34 89.5z" />
<glyph unicode="&#xcd;" horiz-adv-x="577" d="M141 100v1299q0 65 34 89.5t114 24.5q79 0 113 -24.5t34 -89.5v-1299q0 -65 -34 -89.5t-113 -24.5q-80 0 -114 24.5t-34 89.5zM240 1710l122 211q34 59 150 59q66 0 88.5 -24t-6.5 -62l-174 -206q-20 -26 -44.5 -38t-66.5 -12q-110 0 -69 72z" />
<glyph unicode="&#xce;" horiz-adv-x="577" d="M37 1700l143 219q19 29 43.5 40t63.5 11q45 0 71.5 -11t44.5 -38l146 -221q19 -29 -6 -47.5t-72 -18.5q-38 0 -60 8t-28.5 16.5t-15.5 27.5l-74 141l-74 -141q-9 -19 -15.5 -27.5t-28.5 -16.5t-60 -8q-47 0 -72 18.5t-6 47.5zM141 100v1299q0 65 34 89.5t114 24.5 q79 0 113 -24.5t34 -89.5v-1299q0 -65 -34 -89.5t-113 -24.5q-80 0 -114 24.5t-34 89.5z" />
<glyph unicode="&#xcf;" horiz-adv-x="577" d="M-43 1763v105q0 49 29 68.5t92 19.5t92 -19.5t29 -68.5v-105q0 -49 -28.5 -68.5t-90.5 -19.5q-63 0 -93 19.5t-30 68.5zM141 100v1299q0 65 34 89.5t114 24.5q79 0 113 -24.5t34 -89.5v-1299q0 -65 -34 -89.5t-113 -24.5q-80 0 -114 24.5t-34 89.5zM379 1763v105 q0 49 29 68.5t92 19.5t92 -19.5t29 -68.5v-105q0 -49 -28.5 -68.5t-90.5 -19.5q-63 0 -93 19.5t-30 68.5z" />
<glyph unicode="&#xd0;" horiz-adv-x="1331" d="M16 762q0 63 20 91t68 28h27v473q0 83 42.5 114t143.5 31h353q139 0 246 -38.5t173 -108t99 -160.5t33 -201v-504q0 -105 -33 -192t-99 -154t-173 -104t-246 -37h-353q-101 0 -143.5 31t-42.5 114v502h-27q-48 0 -68 27.5t-20 87.5zM426 260h205q158 0 226.5 69t68.5 212 v405q0 146 -69 219.5t-226 73.5h-205v-358h238q50 0 69 -27.5t19 -91.5q0 -61 -19.5 -88t-68.5 -27h-238v-387z" />
<glyph unicode="&#xd1;" horiz-adv-x="1429" d="M131 96v1284q0 53 15 79.5t56.5 39t125.5 12.5q118 0 163.5 -20.5t73.5 -83.5l301 -651q105 -215 172 -445h6q-24 228 -24 459v635q0 62 32 85t107 23q76 0 108.5 -23t32.5 -85v-1296q0 -49 -13.5 -73t-53.5 -36t-119 -12q-78 0 -120 9.5t-64.5 29.5t-42.5 61l-316 657 q-53 114 -180 441h-6q27 -249 27 -406v-684q0 -64 -32.5 -87t-109.5 -23q-75 0 -107 23t-32 87zM414 1823q38 52 95 90.5t120 38.5q48 1 93.5 -19.5t82 -41.5t61.5 -21q7 0 13 1t11.5 3t10 3.5t9.5 6t8 6.5t8.5 8t7.5 8.5t8 9.5t8 9q18 22 48.5 19t62.5 -33q53 -55 20 -107 q-39 -53 -94.5 -92t-118.5 -39q-53 0 -98 21t-79.5 42t-61.5 21q-7 0 -13 -1t-11.5 -3t-10 -3.5t-9.5 -6t-8 -6.5t-8.5 -8t-7.5 -8.5t-8 -9.5t-8 -9q-18 -22 -48.5 -19t-62.5 33q-53 55 -20 107z" />
<glyph unicode="&#xd2;" horiz-adv-x="1392" d="M111 518v469q0 116 36.5 213t108 169.5t184 113.5t256.5 41q145 0 258 -41t184 -114.5t107.5 -171.5t36.5 -216v-469q0 -247 -150 -392t-436 -145q-289 0 -437 146.5t-148 396.5zM400.5 1960.5q22.5 24.5 88.5 24.5q115 0 150 -60l123 -211q41 -72 -70 -72q-42 0 -66 12 t-44 38l-174 206q-30 38 -7.5 62.5zM406 557q0 -157 67 -239t223 -82q154 0 222.5 82t68.5 235v389q0 324 -291 324q-156 0 -223 -82t-67 -238v-389z" />
<glyph unicode="&#xd3;" horiz-adv-x="1392" d="M111 518v469q0 116 36.5 213t108 169.5t184 113.5t256.5 41q145 0 258 -41t184 -114.5t107.5 -171.5t36.5 -216v-469q0 -247 -150 -392t-436 -145q-289 0 -437 146.5t-148 396.5zM406 557q0 -157 67 -239t223 -82q154 0 222.5 82t68.5 235v389q0 324 -291 324 q-156 0 -223 -82t-67 -238v-389zM631 1714l123 211q19 32 54 46t95 14q66 0 88.5 -24.5t-6.5 -62.5l-174 -206q-20 -26 -44.5 -38t-66.5 -12q-110 0 -69 72z" />
<glyph unicode="&#xd4;" horiz-adv-x="1392" d="M111 518v469q0 116 36.5 213t108 169.5t184 113.5t256.5 41q145 0 258 -41t184 -114.5t107.5 -171.5t36.5 -216v-469q0 -247 -150 -392t-436 -145q-289 0 -437 146.5t-148 396.5zM406 557q0 -157 67 -239t223 -82q154 0 222.5 82t68.5 235v389q0 324 -291 324 q-156 0 -223 -82t-67 -238v-389zM444 1704l144 219q19 30 43 40.5t63 10.5q45 0 72 -11t45 -38l145 -221q19 -29 -5.5 -47.5t-71.5 -18.5q-38 0 -60 8t-29 16.5t-16 27.5l-74 141l-73 -141q-9 -19 -16 -27.5t-29 -16.5t-60 -8q-47 0 -72 18.5t-6 47.5z" />
<glyph unicode="&#xd5;" horiz-adv-x="1392" d="M111 518v469q0 116 36.5 213t108 169.5t184 113.5t256.5 41q145 0 258 -41t184 -114.5t107.5 -171.5t36.5 -216v-469q0 -247 -150 -392t-436 -145q-289 0 -437 146.5t-148 396.5zM379 1823q38 52 95 90.5t120 38.5q48 1 93.5 -19.5t82 -41.5t61.5 -21q7 0 13 1t11.5 3 t10 3.5t9.5 6t8 6.5t8.5 8t7.5 8.5t8 9.5t8 9q18 22 48.5 19t62.5 -33q54 -56 21 -107q-39 -53 -94.5 -92t-118.5 -39q-53 0 -98.5 21t-80 42t-61.5 21q-7 0 -13 -1t-11.5 -3t-10 -3.5t-9.5 -6t-8 -6.5t-8.5 -8t-7.5 -8.5t-8 -9.5t-8 -9q-18 -22 -48.5 -19t-62.5 33 q-53 55 -20 107zM406 557q0 -157 67 -239t223 -82q154 0 222.5 82t68.5 235v389q0 324 -291 324q-156 0 -223 -82t-67 -238v-389z" />
<glyph unicode="&#xd6;" horiz-adv-x="1392" d="M111 518v469q0 116 36.5 213t108 169.5t184 113.5t256.5 41q145 0 258 -41t184 -114.5t107.5 -171.5t36.5 -216v-469q0 -247 -150 -392t-436 -145q-289 0 -437 146.5t-148 396.5zM369 1763v105q0 49 28.5 68.5t91.5 19.5t92 -19.5t29 -68.5v-105q0 -49 -28 -68.5 t-90 -19.5q-63 0 -93 19.5t-30 68.5zM406 557q0 -157 67 -239t223 -82q154 0 222.5 82t68.5 235v389q0 324 -291 324q-156 0 -223 -82t-67 -238v-389zM791 1763v105q0 49 28.5 68.5t91.5 19.5t92 -19.5t29 -68.5v-105q0 -49 -28.5 -68.5t-90.5 -19.5q-63 0 -92.5 19.5 t-29.5 68.5z" />
<glyph unicode="&#xd7;" d="M182.5 273.5q-4.5 30.5 30.5 70.5l291 291l-285 285q-37 38 -32 69t49 74q44 44 75.5 49.5t69.5 -29.5l285 -286l286 286q38 37 70 32.5t74 -48.5q44 -44 49.5 -75.5t-29.5 -69.5l-287 -287l293 -291q36 -40 30.5 -71t-48.5 -74q-44 -44 -75 -49t-71 30l-290 291 l-291 -291q-25 -25 -48.5 -29.5t-46 7.5t-51.5 41q-44 44 -48.5 74.5z" />
<glyph unicode="&#xd8;" horiz-adv-x="1392" d="M111 518v461q0 119 36 217.5t107 172t184 114.5t258 41q182 0 318 -68l22 39q35 61 58 74.5t90 13.5q110 0 61 -82l-90 -153q127 -149 127 -367v-461q0 -251 -149 -398t-437 -147q-167 0 -293 52l-26 -47q-29 -55 -49.5 -66.5t-87.5 -11.5q-54 0 -74 17.5t0 53.5l92 152 q-147 141 -147 393zM406 557q0 -84 14 -141l457 801q-68 49 -181 49q-156 0 -223 -82t-67 -238v-389zM541 264q57 -28 155 -28q154 0 222.5 82t68.5 235v389q0 67 -6 96z" />
<glyph unicode="&#xd9;" horiz-adv-x="1372" d="M121 467v932q0 65 34 89.5t113 24.5q80 0 114 -24.5t34 -89.5v-873q0 -145 64.5 -220t205.5 -75q279 0 279 295v877q0 63 33 86.5t110 23.5t110 -23.5t33 -86.5v-936q0 -226 -154.5 -359t-410.5 -133q-273 0 -419 130.5t-146 361.5zM388.5 1960.5q22.5 24.5 88.5 24.5 q115 0 150 -60l123 -211q41 -72 -70 -72q-42 0 -66.5 12t-44.5 38l-174 206q-29 38 -6.5 62.5z" />
<glyph unicode="&#xda;" horiz-adv-x="1372" d="M121 467v932q0 65 34 89.5t113 24.5q80 0 114 -24.5t34 -89.5v-873q0 -145 64.5 -220t205.5 -75q279 0 279 295v877q0 63 33 86.5t110 23.5t110 -23.5t33 -86.5v-936q0 -226 -154.5 -359t-410.5 -133q-273 0 -419 130.5t-146 361.5zM625 1712l123 211q19 32 53.5 45.5 t95.5 13.5q66 0 88.5 -24t-6.5 -62l-174 -206q-20 -26 -44.5 -38t-66.5 -12q-110 0 -69 72z" />
<glyph unicode="&#xdb;" horiz-adv-x="1372" d="M121 467v932q0 65 34 89.5t113 24.5q80 0 114 -24.5t34 -89.5v-873q0 -145 64.5 -220t205.5 -75q279 0 279 295v877q0 63 33 86.5t110 23.5t110 -23.5t33 -86.5v-936q0 -226 -154.5 -359t-410.5 -133q-273 0 -419 130.5t-146 361.5zM434 1724l144 220q19 30 43 40.5 t63 10.5q45 0 72 -11t45 -38l145 -222q19 -29 -6 -47t-72 -18q-38 0 -60 8t-28.5 16t-15.5 27l-74 141l-74 -141q-9 -19 -15.5 -27t-28.5 -16t-60 -8q-47 0 -72 18t-6 47z" />
<glyph unicode="&#xdc;" horiz-adv-x="1372" d="M121 467v932q0 65 34 89.5t113 24.5q80 0 114 -24.5t34 -89.5v-873q0 -145 64.5 -220t205.5 -75q279 0 279 295v877q0 63 33 86.5t110 23.5t110 -23.5t33 -86.5v-936q0 -226 -154.5 -359t-410.5 -133q-273 0 -419 130.5t-146 361.5zM356 1765v105q0 49 29 68.5t92 19.5 t92 -19.5t29 -68.5v-105q0 -49 -28.5 -68.5t-90.5 -19.5q-63 0 -93 19.5t-30 68.5zM778 1765v105q0 49 29 68.5t92 19.5t92 -19.5t29 -68.5v-105q0 -49 -28.5 -68.5t-90.5 -19.5q-63 0 -93 19.5t-30 68.5z" />
<glyph unicode="&#xdd;" horiz-adv-x="1230" d="M14 1452q0 33 27 47t106 14q89 0 121 -11t58 -62l295 -586l280 580q27 55 58.5 67t138.5 12q129 0 129 -49q0 -18 -25 -63l-438 -813v-488q0 -65 -34 -89.5t-114 -24.5q-79 0 -113 24.5t-34 89.5v488l-430 798q-25 48 -25 66zM567 1708l123 211q34 59 150 59 q66 0 88.5 -24t-6.5 -62l-174 -206q-20 -26 -44.5 -38t-66.5 -12q-111 0 -70 72z" />
<glyph unicode="&#xde;" horiz-adv-x="1171" d="M131 100v1299q0 65 34 89.5t114 24.5q79 0 113 -24.5t34 -89.5v-131h186q244 0 377 -111.5t133 -343.5v-119q0 -224 -137 -340t-379 -116h-180v-138q0 -65 -34 -89.5t-113 -24.5q-80 0 -114 24.5t-34 89.5zM426 494h158q132 0 187.5 50t55.5 156v99q0 115 -62 163 t-179 48h-160v-516z" />
<glyph unicode="&#xdf;" horiz-adv-x="1271" d="M123 104v961q0 471 491 471q200 0 327.5 -105.5t127.5 -281.5v-43q0 -179 -160 -264q54 -12 103 -37t96 -67.5t74.5 -111.5t27.5 -157v-53q0 -69 -12.5 -129.5t-43 -119t-77.5 -100t-121.5 -67t-169.5 -25.5q-184 0 -272 115q-33 49 -25.5 83t52.5 69q90 84 141 20 q46 -53 100 -53q70 0 106 48t36 159v41q0 63 -16 111t-40 75.5t-57.5 44t-63.5 22t-63 5.5h-63q-46 0 -65 26.5t-19 85.5q0 62 19 88.5t67 26.5h24q70 0 103.5 50.5t33.5 123.5q0 187 -182 187q-103 0 -147.5 -57t-44.5 -181v-961q0 -63 -33 -86.5t-111 -23.5 q-77 0 -110 23.5t-33 86.5z" />
<glyph unicode="&#xe0;" horiz-adv-x="1120" d="M72 299v14q0 398 643 342v84q0 83 -44.5 126.5t-144.5 43.5q-67 0 -104.5 -22.5t-65.5 -65.5q-29 -46 -58.5 -51.5t-86.5 25.5q-30 15 -49 29t-30.5 32t-9 40.5t18.5 49.5q59 101 158.5 149t267.5 48q186 0 307 -111t121 -309v-633q0 -61 -31 -83.5t-106 -22.5 q-73 0 -104 22.5t-31 83.5v49q-59 -76 -132.5 -117.5t-182.5 -41.5q-153 0 -244.5 92.5t-91.5 226.5zM259.5 1545q22.5 24 88.5 24q115 0 150 -60l123 -211q41 -71 -70 -71q-43 0 -67 11.5t-44 37.5l-174 207q-29 38 -6.5 62zM356 330q0 -53 34 -87t95 -34q148 0 230 115 v157q-109 5 -181.5 -2.5t-110.5 -28.5t-52.5 -48.5t-14.5 -67.5v-4z" />
<glyph unicode="&#xe1;" horiz-adv-x="1120" d="M72 299v14q0 398 643 342v84q0 83 -44.5 126.5t-144.5 43.5q-67 0 -104.5 -22.5t-65.5 -65.5q-29 -46 -58.5 -51.5t-86.5 25.5q-30 15 -49 29t-30.5 32t-9 40.5t18.5 49.5q59 101 158.5 149t267.5 48q186 0 307 -111t121 -309v-633q0 -61 -31 -83.5t-106 -22.5 q-73 0 -104 22.5t-31 83.5v49q-59 -76 -132.5 -117.5t-182.5 -41.5q-153 0 -244.5 92.5t-91.5 226.5zM356 330q0 -53 34 -87t95 -34q148 0 230 115v157q-109 5 -181.5 -2.5t-110.5 -28.5t-52.5 -48.5t-14.5 -67.5v-4zM500 1298l123 211q19 32 54 46t95 14q66 0 88.5 -24 t-6.5 -62l-174 -207q-20 -26 -44 -37.5t-67 -11.5q-110 0 -69 71z" />
<glyph unicode="&#xe2;" horiz-adv-x="1120" d="M72 299v14q0 398 643 342v84q0 83 -44.5 126.5t-144.5 43.5q-67 0 -104.5 -22.5t-65.5 -65.5q-29 -46 -58.5 -51.5t-86.5 25.5q-30 15 -49 29t-30.5 32t-9 40.5t18.5 49.5q59 101 158.5 149t267.5 48q186 0 307 -111t121 -309v-633q0 -61 -31 -83.5t-106 -22.5 q-73 0 -104 22.5t-31 83.5v49q-59 -76 -132.5 -117.5t-182.5 -41.5q-153 0 -244.5 92.5t-91.5 226.5zM317 1317l144 219q19 30 43 40.5t63 10.5q45 0 72 -11t45 -38l145 -221q19 -29 -5.5 -47.5t-71.5 -18.5q-38 0 -60 8t-29 16.5t-16 27.5l-74 141l-73 -141 q-9 -19 -16 -27.5t-29 -16.5t-60 -8q-47 0 -72 18.5t-6 47.5zM356 330q0 -53 34 -87t95 -34q148 0 230 115v157q-109 5 -181.5 -2.5t-110.5 -28.5t-52.5 -48.5t-14.5 -67.5v-4z" />
<glyph unicode="&#xe3;" horiz-adv-x="1120" d="M72 299v14q0 398 643 342v84q0 83 -44.5 126.5t-144.5 43.5q-67 0 -104.5 -22.5t-65.5 -65.5q-29 -46 -58.5 -51.5t-86.5 25.5q-30 15 -49 29t-30.5 32t-9 40.5t18.5 49.5q59 101 158.5 149t267.5 48q186 0 307 -111t121 -309v-633q0 -61 -31 -83.5t-106 -22.5 q-73 0 -104 22.5t-31 83.5v49q-59 -76 -132.5 -117.5t-182.5 -41.5q-153 0 -244.5 92.5t-91.5 226.5zM223 1413q38 52 95 90.5t120 38.5q48 1 94 -19.5t82.5 -41.5t61.5 -21q9 0 16 1t14.5 5t11.5 6.5t11.5 10l9.5 9.5t11 12t10 12q18 22 48 18.5t62 -33.5q53 -56 21 -106 q-39 -53 -94.5 -92t-118.5 -39q-53 0 -98.5 21t-80 42t-61.5 21q-9 0 -16 -1t-14.5 -5t-11.5 -6.5t-11.5 -10l-9.5 -9.5t-11 -12t-10 -12q-18 -22 -48 -18.5t-62 33.5q-53 56 -21 106zM356 330q0 -53 34 -87t95 -34q148 0 230 115v157q-109 5 -181.5 -2.5t-110.5 -28.5 t-52.5 -48.5t-14.5 -67.5v-4z" />
<glyph unicode="&#xe4;" horiz-adv-x="1120" d="M72 299v14q0 398 643 342v84q0 83 -44.5 126.5t-144.5 43.5q-67 0 -104.5 -22.5t-65.5 -65.5q-29 -46 -58.5 -51.5t-86.5 25.5q-30 15 -49 29t-30.5 32t-9 40.5t18.5 49.5q59 101 158.5 149t267.5 48q186 0 307 -111t121 -309v-633q0 -61 -31 -83.5t-106 -22.5 q-73 0 -104 22.5t-31 83.5v49q-59 -76 -132.5 -117.5t-182.5 -41.5q-153 0 -244.5 92.5t-91.5 226.5zM231 1341v105q0 49 29 68.5t92 19.5t92 -19.5t29 -68.5v-105q0 -49 -28.5 -68.5t-90.5 -19.5q-63 0 -93 19.5t-30 68.5zM356 330q0 -53 34 -87t95 -34q148 0 230 115v157 q-109 5 -181.5 -2.5t-110.5 -28.5t-52.5 -48.5t-14.5 -67.5v-4zM653 1341v105q0 49 29 68.5t92 19.5t92 -19.5t29 -68.5v-105q0 -49 -28.5 -68.5t-90.5 -19.5q-63 0 -93 19.5t-30 68.5z" />
<glyph unicode="&#xe5;" horiz-adv-x="1120" d="M72 299v14q0 398 643 342v84q0 83 -44.5 126.5t-144.5 43.5q-67 0 -104.5 -22.5t-65.5 -65.5q-29 -46 -58.5 -51.5t-86.5 25.5q-30 15 -49 29t-30.5 32t-9 40.5t18.5 49.5q59 101 158.5 149t267.5 48q186 0 307 -111t121 -309v-633q0 -61 -31 -83.5t-106 -22.5 q-73 0 -104 22.5t-31 83.5v49q-59 -76 -132.5 -117.5t-182.5 -41.5q-153 0 -244.5 92.5t-91.5 226.5zM354 1417q0 89 60 146t149 57q92 0 152.5 -56.5t60.5 -146.5q0 -87 -60.5 -142.5t-152.5 -55.5q-88 0 -148.5 56t-60.5 142zM356 330q0 -53 34 -87t95 -34q148 0 230 115 v157q-109 5 -181.5 -2.5t-110.5 -28.5t-52.5 -48.5t-14.5 -67.5v-4zM483 1417q0 -33 23 -54.5t57 -21.5q37 0 60.5 21t23.5 55q0 36 -23.5 58t-60.5 22q-34 0 -57 -22t-23 -58z" />
<glyph unicode="&#xe6;" horiz-adv-x="1728" d="M59 299v14q0 88 32 152t105 110.5t200.5 66t308.5 11.5v74q0 80 -42 131t-137 51q-66 0 -103.5 -23.5t-66.5 -68.5q-29 -46 -58.5 -51.5t-86.5 25.5q-30 15 -49 29t-30.5 32t-9 40.5t18.5 49.5q59 101 156 151t250 50q173 0 307 -113q61 60 134.5 86.5t193.5 26.5 q225 0 346 -129t121 -385v-39q0 -62 -36 -96.5t-100 -34.5h-526v-33q0 -107 42.5 -162t158.5 -55q121 0 188 98q24 36 61.5 39t104.5 -31q54 -29 65 -60.5t-22 -88.5q-137 -191 -397 -191q-141 0 -234 42t-153 126q-67 -67 -164.5 -117.5t-214.5 -50.5q-166 0 -264.5 94.5 t-98.5 229.5zM346 330q0 -53 34 -87t95 -34q72 0 137.5 29t106.5 86q-14 46 -14 137v20q-109 5 -181.5 -2.5t-110.5 -28.5t-52.5 -48.5t-14.5 -67.5v-4zM987 653h387v58q0 33 -9 65t-29.5 63.5t-60.5 50.5t-95 19q-193 0 -193 -219v-37z" />
<glyph unicode="&#xe7;" horiz-adv-x="1103" d="M102 424v268q0 109 38.5 196t104.5 142t150.5 84t179.5 29q162 0 275 -76t151 -217q15 -57 -12.5 -87t-97.5 -44q-71 -17 -102.5 -3t-45.5 66q-16 55 -61 91t-107 36q-186 0 -186 -233v-252q0 -215 197 -215q66 0 102.5 32t67.5 91q42 80 164 10q38 -23 55.5 -43.5 t20.5 -51t-19 -69.5q-41 -82 -125.5 -134t-206.5 -64v-43q82 0 128 -49.5t46 -118.5v-15q0 -72 -65 -126t-172 -54q-75 0 -135.5 20.5t-96.5 47.5q-33 24 -14 75q27 77 86 41q27 -17 67.5 -30t73.5 -13q70 0 70 58q0 53 -92 53q-18 0 -25.5 0.5t-21 3.5t-19.5 12.5t-6 24.5 v117q-170 27 -268.5 139t-98.5 301z" />
<glyph unicode="&#xe8;" horiz-adv-x="1138" d="M102 424q0 -210 122.5 -329.5t355.5 -119.5q133 0 240.5 49t172.5 144q23 36 24 63t-16 45.5t-53 38.5q-66 35 -103 33.5t-61 -37.5q-29 -44 -81.5 -73t-122.5 -29q-195 0 -195 205v45h518q64 0 100.5 34.5t36.5 96.5v61q0 492 -465 492q-216 0 -344.5 -123.5 t-128.5 -339.5v-256zM265.5 1545q22.5 24 88.5 24q115 0 150 -60l123 -211q41 -71 -70 -71q-43 0 -67 11.5t-44 37.5l-174 207q-29 38 -6.5 62zM385 653v37q0 34 5 63.5t18 59t33 50t54 33.5t78 13q58 0 99 -18t60.5 -49t27.5 -62t8 -67v-60h-383z" />
<glyph unicode="&#xe9;" horiz-adv-x="1138" d="M102 424v256q0 216 128.5 339.5t344.5 123.5q465 0 465 -492v-61q0 -62 -36.5 -96.5t-100.5 -34.5h-518v-45q0 -205 195 -205q70 0 122.5 29t81.5 73q24 36 61 37.5t103 -33.5q36 -20 53 -38.5t16 -45.5t-24 -63q-65 -95 -172.5 -144t-240.5 -49q-233 0 -355.5 119.5 t-122.5 329.5zM385 653h383v60q0 36 -8 67t-27.5 62t-60.5 49t-99 18q-44 0 -78 -13t-54 -33.5t-33 -50t-18 -59t-5 -63.5v-37zM516 1298l123 211q19 32 54 46t95 14q66 0 88.5 -24t-6.5 -62l-174 -207q-20 -26 -44 -37.5t-66 -11.5q-111 0 -70 71z" />
<glyph unicode="&#xea;" horiz-adv-x="1138" d="M102 424q0 -210 122.5 -329.5t355.5 -119.5q133 0 240.5 49t172.5 144q23 36 24 63t-16 45.5t-53 38.5q-66 35 -103 33.5t-61 -37.5q-29 -44 -81.5 -73t-122.5 -29q-195 0 -195 205v45h518q64 0 100.5 34.5t36.5 96.5v61q0 492 -465 492q-216 0 -344.5 -123.5 t-128.5 -339.5v-256zM330 1317l143 219q19 29 43.5 40t63.5 11q45 0 71.5 -11t44.5 -38l146 -221q19 -29 -6 -47.5t-72 -18.5q-38 0 -60 8t-29 16.5t-16 27.5l-73 141l-74 -141q-9 -19 -15.5 -27.5t-28.5 -16.5t-60 -8q-47 0 -72 18.5t-6 47.5zM385 653v37q0 34 5 63.5 t18 59t33 50t54 33.5t78 13q58 0 99 -18t60.5 -49t27.5 -62t8 -67v-60h-383z" />
<glyph unicode="&#xeb;" horiz-adv-x="1138" d="M102 424q0 -210 122.5 -329.5t355.5 -119.5q133 0 240.5 49t172.5 144q23 36 24 63t-16 45.5t-53 38.5q-66 35 -103 33.5t-61 -37.5q-29 -44 -81.5 -73t-122.5 -29q-195 0 -195 205v45h518q64 0 100.5 34.5t36.5 96.5v61q0 492 -465 492q-216 0 -344.5 -123.5 t-128.5 -339.5v-256zM258 1341v105q0 49 29 68.5t92 19.5t92 -19.5t29 -68.5v-105q0 -49 -28.5 -68.5t-90.5 -19.5q-63 0 -93 19.5t-30 68.5zM385 653v37q0 34 5 63.5t18 59t33 50t54 33.5t78 13q58 0 99 -18t60.5 -49t27.5 -62t8 -67v-60h-383zM680 1341v105q0 49 29 68.5 t92 19.5t92 -19.5t29 -68.5v-105q0 -49 -28.5 -68.5t-90.5 -19.5q-63 0 -93 19.5t-30 68.5z" />
<glyph unicode="&#xec;" horiz-adv-x="542" d="M-29.5 1545q22.5 24 88.5 24q115 0 150 -60l123 -211q41 -71 -70 -71q-42 0 -66 11.5t-44 37.5l-175 207q-29 38 -6.5 62zM127 96q0 -63 33 -86.5t110 -23.5q78 0 111 23.5t33 86.5v926q0 63 -33.5 87t-110.5 24t-110 -24t-33 -87v-926z" />
<glyph unicode="&#xed;" horiz-adv-x="542" d="M127 96v926q0 63 33 87t110 24t110.5 -24t33.5 -87v-926q0 -63 -33 -86.5t-111 -23.5q-77 0 -110 23.5t-33 86.5zM223 1298l123 211q35 60 150 60q66 0 88.5 -24t-6.5 -62l-175 -207q-20 -26 -44 -37.5t-66 -11.5q-111 0 -70 71z" />
<glyph unicode="&#xee;" horiz-adv-x="542" d="M14 1317l144 219q19 30 43 40.5t63 10.5q45 0 72 -11t45 -38l145 -221q19 -29 -5.5 -47.5t-71.5 -18.5q-38 0 -60 8t-29 16.5t-16 27.5l-74 141l-73 -141q-9 -19 -16 -27.5t-29 -16.5t-60 -8q-47 0 -72 18.5t-6 47.5zM127 96q0 -63 33 -86.5t110 -23.5q78 0 111 23.5 t33 86.5v926q0 63 -33.5 87t-110.5 24t-110 -24t-33 -87v-926z" />
<glyph unicode="&#xef;" horiz-adv-x="524" d="M-61 1341v105q0 49 28.5 68.5t91.5 19.5t92 -19.5t29 -68.5v-105q0 -49 -28.5 -68.5t-90.5 -19.5q-63 0 -92.5 19.5t-29.5 68.5zM127 96q0 -63 33 -86.5t110 -23.5q78 0 111 23.5t33 86.5v926q0 63 -33.5 87t-110.5 24t-110 -24t-33 -87v-926zM360 1341v105q0 49 29 68.5 t92 19.5t92 -19.5t29 -68.5v-105q0 -49 -28.5 -68.5t-90.5 -19.5q-63 0 -93 19.5t-30 68.5z" />
<glyph unicode="&#xf0;" horiz-adv-x="1267" d="M113 432v203q0 217 128.5 334.5t354.5 117.5q71 0 145 -20.5t113 -50.5q-49 133 -139 207l-35 -41q-56 -70 -139 10q-41 37 -47.5 66.5t24.5 66.5l33 35l-25 20q-52 47 -54 84t44 92q39 47 79 61t79 -13q22 -16 51 -43l43 47q35 36 66 33t75 -44q27 -26 38.5 -46.5 t8 -42.5t-25.5 -46l-45 -49q260 -274 260 -733v-160q0 -89 -16 -166t-55 -148t-98.5 -121t-152.5 -80t-211 -30q-499 0 -499 457zM399 424q0 -52 13.5 -91.5t34.5 -62.5t50.5 -37t56.5 -19t58 -5q57 0 96.5 8.5t76 32.5t55 74t18.5 125v165q0 123 -70 184.5t-172 61.5 q-94 0 -155.5 -60.5t-61.5 -176.5v-199z" />
<glyph unicode="&#xf1;" horiz-adv-x="1218" d="M127 98v928q0 60 32 83.5t107 23.5t107.5 -23.5t32.5 -83.5v-63q158 180 366 180q154 0 239 -97t85 -243v-705q0 -63 -33 -86.5t-111 -23.5q-77 0 -110 23.5t-33 86.5v627q0 36 -5.5 64t-20 57.5t-48 46t-82.5 16.5q-156 0 -239 -174v-637q0 -63 -33 -86.5t-111 -23.5 q-77 0 -110 23.5t-33 86.5zM303 1413q38 52 95 90.5t120 38.5q48 1 94 -19.5t82.5 -41.5t61.5 -21q9 0 16 1t14.5 5t11.5 6.5t11.5 10l9.5 9.5t11 12t10 12q18 22 48 18.5t62 -33.5q53 -56 21 -106q-39 -53 -94.5 -92t-118.5 -39q-53 0 -98.5 21t-80 42t-61.5 21 q-9 0 -16 -1t-14.5 -5t-11.5 -6.5t-11.5 -10l-9.5 -9.5t-11 -12t-10 -12q-18 -22 -48 -18.5t-62 33.5q-53 56 -21 106z" />
<glyph unicode="&#xf2;" horiz-adv-x="1218" d="M113 406v299q0 212 128.5 325t370.5 113q235 0 364.5 -113.5t129.5 -324.5v-291q0 -210 -129.5 -324.5t-366.5 -114.5t-367 114t-130 317zM312.5 1545q22.5 24 88.5 24q115 0 150 -60l123 -211q41 -71 -70 -71q-42 0 -66 11.5t-44 37.5l-175 207q-29 38 -6.5 62zM399 430 q0 -116 57.5 -168.5t153.5 -52.5q95 0 152 52t57 167v262q0 115 -57 167t-152 52q-97 0 -154 -52.5t-57 -168.5v-258z" />
<glyph unicode="&#xf3;" horiz-adv-x="1218" d="M113 406v299q0 212 128.5 325t370.5 113q235 0 364.5 -113.5t129.5 -324.5v-291q0 -210 -129.5 -324.5t-366.5 -114.5t-367 114t-130 317zM399 430q0 -116 57.5 -168.5t153.5 -52.5q95 0 152 52t57 167v262q0 115 -57 167t-152 52q-97 0 -154 -52.5t-57 -168.5v-258z M541 1298l123 211q19 32 54 46t95 14q66 0 88.5 -24t-6.5 -62l-174 -207q-20 -26 -44 -37.5t-67 -11.5q-110 0 -69 71z" />
<glyph unicode="&#xf4;" horiz-adv-x="1218" d="M113 406v299q0 212 128.5 325t370.5 113q235 0 364.5 -113.5t129.5 -324.5v-291q0 -210 -129.5 -324.5t-366.5 -114.5t-367 114t-130 317zM360 1317l144 219q19 30 43 40.5t63 10.5q45 0 72 -11t45 -38l145 -221q19 -29 -5.5 -47.5t-71.5 -18.5q-38 0 -60 8t-29 16.5 t-16 27.5l-74 141l-73 -141q-9 -19 -16 -27.5t-29 -16.5t-60 -8q-47 0 -72 18.5t-6 47.5zM399 430q0 -116 57.5 -168.5t153.5 -52.5q95 0 152 52t57 167v262q0 115 -57 167t-152 52q-97 0 -154 -52.5t-57 -168.5v-258z" />
<glyph unicode="&#xf5;" horiz-adv-x="1218" d="M113 406v299q0 212 128.5 325t370.5 113q235 0 364.5 -113.5t129.5 -324.5v-291q0 -210 -129.5 -324.5t-366.5 -114.5t-367 114t-130 317zM307 1413q38 52 95 90.5t120 38.5q48 1 94 -19.5t82.5 -41.5t61.5 -21q9 0 16 1t14.5 5t11.5 6.5t11.5 10l9.5 9.5t11 12t10 12 q18 22 48 18.5t62 -33.5q53 -56 21 -106q-39 -53 -94.5 -92t-118.5 -39q-53 0 -98.5 21t-80 42t-61.5 21q-9 0 -16 -1t-14.5 -5t-11.5 -6.5t-11.5 -10l-9.5 -9.5t-11 -12t-10 -12q-18 -22 -48 -18.5t-62 33.5q-53 56 -21 106zM399 430q0 -116 57.5 -168.5t153.5 -52.5 q95 0 152 52t57 167v262q0 115 -57 167t-152 52q-97 0 -154 -52.5t-57 -168.5v-258z" />
<glyph unicode="&#xf6;" horiz-adv-x="1218" d="M113 406v299q0 212 128.5 325t370.5 113q235 0 364.5 -113.5t129.5 -324.5v-291q0 -210 -129.5 -324.5t-366.5 -114.5t-367 114t-130 317zM301 1341v105q0 49 29 68.5t92 19.5t92 -19.5t29 -68.5v-105q0 -49 -28.5 -68.5t-90.5 -19.5q-63 0 -93 19.5t-30 68.5zM399 430 q0 -116 57.5 -168.5t153.5 -52.5q95 0 152 52t57 167v262q0 115 -57 167t-152 52q-97 0 -154 -52.5t-57 -168.5v-258zM723 1341v105q0 49 29 68.5t92 19.5t92 -19.5t29 -68.5v-105q0 -49 -28.5 -68.5t-90.5 -19.5q-63 0 -93 19.5t-30 68.5z" />
<glyph unicode="&#xf7;" d="M156 629q0 63 20 91t68 28h850q50 0 69 -27.5t19 -91.5q0 -60 -19 -86.5t-69 -26.5h-850q-48 0 -68 26.5t-20 86.5zM539 160v98q0 56 31 78t96 22q66 0 97.5 -22t31.5 -78v-98q0 -56 -31.5 -78.5t-97.5 -22.5q-65 0 -96 22.5t-31 78.5zM539 1006v98q0 56 31 78t96 22 q66 0 97.5 -22t31.5 -78v-98q0 -56 -31.5 -78.5t-97.5 -22.5q-65 0 -96 22.5t-31 78.5z" />
<glyph unicode="&#xf8;" horiz-adv-x="1218" d="M113 406v299q0 212 128.5 325t370.5 113q128 0 228 -35l12 20q23 39 36.5 53t32.5 19.5t62 5.5q100 0 55 -73l-61 -103q129 -117 129 -325v-291q0 -210 -129.5 -324.5t-366.5 -114.5q-128 0 -231 35l-31 -53q-28 -50 -45.5 -60t-77.5 -10q-48 0 -65.5 17t0.5 49l80 135 q-127 112 -127 318zM399 430q0 -25 4 -65l308 526q-43 18 -103 18q-95 0 -152 -52.5t-57 -168.5v-258zM506 227q46 -18 104 -18q95 0 152 52t57 167v262q0 8 -6 62z" />
<glyph unicode="&#xf9;" horiz-adv-x="1218" d="M121 315v705q0 63 33 86.5t110 23.5q78 0 112 -24t34 -86v-631q0 -96 37 -138t108 -42q67 0 135 38.5t115 104.5v668q0 63 33 86.5t110 23.5q78 0 111 -23.5t33 -86.5v-924q0 -60 -32 -83t-108 -23q-75 0 -107 23t-32 83v19q-78 -66 -158.5 -103t-189.5 -37 q-169 0 -256.5 89.5t-87.5 250.5zM308.5 1545q22.5 24 88.5 24q115 0 150 -60l123 -211q41 -71 -70 -71q-43 0 -67 11.5t-44 37.5l-174 207q-29 38 -6.5 62z" />
<glyph unicode="&#xfa;" horiz-adv-x="1218" d="M121 315v705q0 63 33 86.5t110 23.5q78 0 112 -24t34 -86v-631q0 -96 37 -138t108 -42q67 0 135 38.5t115 104.5v668q0 63 33 86.5t110 23.5q78 0 111 -23.5t33 -86.5v-924q0 -60 -32 -83t-108 -23q-75 0 -107 23t-32 83v19q-78 -66 -158.5 -103t-189.5 -37 q-169 0 -256.5 89.5t-87.5 250.5zM547 1298l123 211q19 32 54 46t95 14q66 0 88.5 -24t-6.5 -62l-174 -207q-20 -26 -44 -37.5t-67 -11.5q-110 0 -69 71z" />
<glyph unicode="&#xfb;" horiz-adv-x="1218" d="M121 315v705q0 63 33 86.5t110 23.5q78 0 112 -24t34 -86v-631q0 -96 37 -138t108 -42q67 0 135 38.5t115 104.5v668q0 63 33 86.5t110 23.5q78 0 111 -23.5t33 -86.5v-924q0 -60 -32 -83t-108 -23q-75 0 -107 23t-32 83v19q-78 -66 -158.5 -103t-189.5 -37 q-169 0 -256.5 89.5t-87.5 250.5zM350 1317l144 219q19 30 43 40.5t63 10.5q45 0 72 -11t45 -38l145 -221q19 -29 -6 -47.5t-72 -18.5q-38 0 -60 8t-28.5 16.5t-15.5 27.5l-74 141l-74 -141q-9 -19 -15.5 -27.5t-28.5 -16.5t-60 -8q-47 0 -72 18.5t-6 47.5z" />
<glyph unicode="&#xfc;" horiz-adv-x="1218" d="M121 315v705q0 63 33 86.5t110 23.5q78 0 112 -24t34 -86v-631q0 -96 37 -138t108 -42q67 0 135 38.5t115 104.5v668q0 63 33 86.5t110 23.5q78 0 111 -23.5t33 -86.5v-924q0 -60 -32 -83t-108 -23q-75 0 -107 23t-32 83v19q-78 -66 -158.5 -103t-189.5 -37 q-169 0 -256.5 89.5t-87.5 250.5zM274 1341v105q0 49 29 68.5t92 19.5t92 -19.5t29 -68.5v-105q0 -49 -28.5 -68.5t-90.5 -19.5q-63 0 -93 19.5t-30 68.5zM696 1341v105q0 49 29 68.5t92 19.5t92 -19.5t29 -68.5v-105q0 -49 -28.5 -68.5t-90.5 -19.5q-63 0 -93 19.5 t-30 68.5z" />
<glyph unicode="&#xfd;" horiz-adv-x="1046" d="M31 1006q-23 66 7.5 96.5t119.5 30.5q85 0 120 -19t52 -74l207 -708l215 715q15 51 47 68.5t106 17.5q90 0 117.5 -28t5.5 -91l-360 -983q-58 -159 -138.5 -260t-189.5 -181q-51 -34 -85 -23t-75 68q-29 38 -39 66t0 53.5t43 46.5q71 45 116.5 92t80.5 127zM475 1298 l123 211q35 60 150 60q66 0 88 -24t-7 -62l-174 -207q-20 -26 -44 -37.5t-66 -11.5q-111 0 -70 71z" />
<glyph unicode="&#xfe;" horiz-adv-x="1247" d="M131 -326v1758q0 63 33 86.5t110 23.5q78 0 111 -23.5t33 -86.5v-457q146 168 342 168q179 0 283 -118t104 -300v-315q0 -103 -33.5 -187.5t-89.5 -137.5t-126.5 -81.5t-147.5 -28.5q-123 0 -197 36t-135 104v-441q0 -63 -33 -86.5t-111 -23.5q-77 0 -110 23.5t-33 86.5z M418 461q0 -34 6.5 -66.5t23 -67t41.5 -60t66.5 -42t93.5 -16.5q211 0 211 227v236q0 111 -50.5 174t-143.5 63q-117 0 -182.5 -78t-65.5 -227v-143z" />
<glyph unicode="&#xff;" horiz-adv-x="1046" d="M31 1006q-23 66 7.5 96.5t119.5 30.5q85 0 120 -19t52 -74l207 -708l215 715q15 51 47 68.5t106 17.5q90 0 117.5 -28t5.5 -91l-360 -983q-58 -159 -138.5 -260t-189.5 -181q-51 -34 -85 -23t-75 68q-29 38 -39 66t0 53.5t43 46.5q71 45 116.5 92t80.5 127zM205 1341v105 q0 49 29 68.5t92 19.5t91.5 -19.5t28.5 -68.5v-105q0 -49 -28 -68.5t-90 -19.5q-63 0 -93 19.5t-30 68.5zM627 1341v105q0 49 29 68.5t92 19.5t91.5 -19.5t28.5 -68.5v-105q0 -49 -28 -68.5t-90 -19.5q-63 0 -93 19.5t-30 68.5z" />
<glyph unicode="&#x152;" horiz-adv-x="1945" d="M111 518v461q0 119 36 217.5t107 172t184 114.5t258 41q162 0 305 -92q18 38 58.5 52.5t114.5 14.5h583q57 0 79 -30.5t22 -100.5q0 -68 -22 -98.5t-79 -30.5h-475v-352h428q54 0 75 -29.5t21 -97.5q0 -67 -21 -96t-75 -29h-428v-375h475q57 0 79 -30.5t22 -100.5 q0 -68 -22 -98.5t-79 -30.5h-583q-84 0 -126.5 20t-54.5 72q-44 -53 -122 -85t-175 -32q-289 0 -437 146.5t-148 396.5zM406 557q0 -157 67 -239t223 -82q154 0 222.5 82t68.5 235v391q0 155 -68.5 238.5t-222.5 83.5q-156 0 -223 -82t-67 -238v-389z" />
<glyph unicode="&#x153;" horiz-adv-x="1869" d="M113 397v303q0 137 66 238.5t178 153t255 51.5q214 0 379 -117q133 117 322 117q467 0 467 -492v-61q0 -62 -37 -96.5t-101 -34.5h-516v-78q13 -172 193 -172q132 0 199 102q24 36 60.5 37.5t102.5 -33.5q36 -20 53 -38.5t16 -45.5t-24 -63q-65 -95 -170 -144t-237 -49 q-206 0 -334 109q-126 -109 -367 -109q-238 0 -371.5 110.5t-133.5 311.5zM399 414q0 -205 222 -205q112 0 163.5 50t51.5 165v256q1 54 -7.5 92.5t-31.5 71t-67 49t-109 16.5q-110 0 -166 -55.5t-56 -161.5v-278zM1126 653h377l4 60q0 28 -4 53t-17 52t-33.5 46.5t-56.5 32 t-83 12.5h-2q-49 0 -86 -17t-58 -46t-31 -62.5t-10 -70.5v-60z" />
<glyph unicode="&#x178;" horiz-adv-x="1230" d="M14 1452q0 33 27 47t106 14q89 0 121 -11t58 -62l295 -586l280 580q27 55 58.5 67t138.5 12q129 0 129 -49q0 -18 -25 -63l-438 -813v-488q0 -65 -34 -89.5t-114 -24.5q-79 0 -113 24.5t-34 89.5v488l-430 798q-25 48 -25 66zM289 1763v105q0 49 29 68.5t92 19.5 t91.5 -19.5t28.5 -68.5v-105q0 -49 -28 -68.5t-90 -19.5q-63 0 -93 19.5t-30 68.5zM711 1763v105q0 49 28.5 68.5t91.5 19.5t92 -19.5t29 -68.5v-105q0 -49 -28 -68.5t-90 -19.5q-63 0 -93 19.5t-30 68.5z" />
<glyph unicode="&#x2c6;" horiz-adv-x="741" d="M115 1317l143 219q19 29 43.5 40t63.5 11q45 0 71.5 -11t44.5 -38l146 -221q19 -29 -6 -47.5t-72 -18.5q-38 0 -60 8t-29 16.5t-16 27.5l-73 141l-74 -141q-9 -19 -15.5 -27.5t-28.5 -16.5t-60 -8q-47 0 -72 18.5t-6 47.5z" />
<glyph unicode="&#x2dc;" horiz-adv-x="860" d="M104 1413q38 52 95 90.5t120 38.5q48 1 94 -19.5t82.5 -41.5t61.5 -21q9 0 16 1t14.5 5t11.5 6.5t11.5 10l9.5 9.5t11 12t10 12q18 22 48.5 18.5t62.5 -33.5q53 -55 20 -106q-39 -53 -94.5 -92t-118.5 -39q-53 0 -98.5 21t-80 42t-61.5 21q-10 0 -19 -2.5t-14.5 -5 t-14.5 -10.5t-11 -10t-12.5 -14t-11.5 -14q-18 -22 -48.5 -18.5t-62.5 33.5q-53 56 -21 106z" />
<glyph unicode="&#x2000;" horiz-adv-x="997" />
<glyph unicode="&#x2001;" horiz-adv-x="1995" />
<glyph unicode="&#x2002;" horiz-adv-x="997" />
<glyph unicode="&#x2003;" horiz-adv-x="1995" />
<glyph unicode="&#x2004;" horiz-adv-x="665" />
<glyph unicode="&#x2005;" horiz-adv-x="498" />
<glyph unicode="&#x2006;" horiz-adv-x="332" />
<glyph unicode="&#x2007;" horiz-adv-x="332" />
<glyph unicode="&#x2008;" horiz-adv-x="249" />
<glyph unicode="&#x2009;" horiz-adv-x="399" />
<glyph unicode="&#x200a;" horiz-adv-x="110" />
<glyph unicode="&#x2010;" horiz-adv-x="1013" d="M102 618q0 60 19 86.5t65 26.5h641q46 0 65 -26.5t19 -86.5q0 -57 -19 -82.5t-65 -25.5h-641q-46 0 -65 25.5t-19 82.5z" />
<glyph unicode="&#x2011;" horiz-adv-x="1013" d="M102 618q0 60 19 86.5t65 26.5h641q46 0 65 -26.5t19 -86.5q0 -57 -19 -82.5t-65 -25.5h-641q-46 0 -65 25.5t-19 82.5z" />
<glyph unicode="&#x2012;" horiz-adv-x="1013" d="M102 618q0 60 19 86.5t65 26.5h641q46 0 65 -26.5t19 -86.5q0 -57 -19 -82.5t-65 -25.5h-641q-46 0 -65 25.5t-19 82.5z" />
<glyph unicode="&#x2013;" horiz-adv-x="1083" d="M100 625q0 57 17.5 81.5t62.5 24.5h727q45 0 62.5 -24.5t17.5 -81.5q0 -54 -18 -78.5t-62 -24.5h-727q-44 0 -62 24.5t-18 78.5z" />
<glyph unicode="&#x2014;" horiz-adv-x="2109" d="M100 625q0 57 17.5 81.5t62.5 24.5h1749q45 0 62.5 -24.5t17.5 -81.5q0 -54 -18 -78.5t-62 -24.5h-1749q-44 0 -62 24.5t-18 78.5z" />
<glyph unicode="&#x2018;" horiz-adv-x="542" d="M104 1028q0 93 29 181t75 152.5t100 111t108 67.5q45 18 86 -33q22 -26 22 -56.5t-26 -53.5q-69 -53 -92 -131.5t-25 -237.5q0 -61 -31.5 -83.5t-105.5 -22.5q-75 0 -107.5 22.5t-32.5 83.5z" />
<glyph unicode="&#x2019;" horiz-adv-x="579" d="M58 1007q0 31 26 54q69 53 92 131.5t25 237.5q0 61 31.5 83.5t105.5 22.5q75 0 107 -22.5t32 -83.5q0 -93 -29 -181t-75 -152.5t-99.5 -111t-107.5 -67.5q-46 -18 -86 32q-22 26 -22 57z" />
<glyph unicode="&#x201a;" horiz-adv-x="495" d="M5 -219.5q0 30.5 26 53.5q69 53 91.5 131t24.5 238q0 61 32 83.5t106 22.5q75 0 107 -22.5t32 -83.5q0 -93 -29 -181t-75 -152.5t-99.5 -111t-107.5 -67.5q-45 -18 -86 33q-22 26 -22 56.5z" />
<glyph unicode="&#x201c;" horiz-adv-x="1005" d="M98 1028q0 93 29 181t75 152.5t100 111t108 67.5q45 18 86 -33q22 -26 22 -56.5t-26 -53.5q-69 -53 -92 -131.5t-25 -237.5q0 -61 -31.5 -83.5t-105.5 -22.5q-75 0 -107.5 22.5t-32.5 83.5zM563 1028q0 93 29 181t75 152.5t99.5 111t107.5 67.5q46 18 87 -33 q21 -26 21 -57.5t-26 -52.5q-69 -53 -91.5 -131t-24.5 -238q0 -61 -32 -83.5t-106 -22.5q-75 0 -107 22.5t-32 83.5z" />
<glyph unicode="&#x201d;" horiz-adv-x="1030" d="M44 1009q0 31 26 54q69 53 91.5 131t24.5 238q0 61 32 83.5t106 22.5q75 0 107 -22.5t32 -83.5q0 -93 -29 -181t-75 -152.5t-99.5 -111t-107.5 -67.5q-46 -18 -86 32q-22 26 -22 57zM508 1010q0 32 27 53q69 53 91.5 131t24.5 238q0 61 31.5 83.5t105.5 22.5 q75 0 107.5 -22.5t32.5 -83.5q0 -93 -29 -181t-75 -152.5t-100 -111t-108 -67.5q-46 -18 -86 32q-22 26 -22 58z" />
<glyph unicode="&#x201e;" horiz-adv-x="960" d="M5 -267q0 31 26 54q69 53 91.5 131t24.5 238q0 61 32 83.5t106 22.5q75 0 107 -22.5t32 -83.5q0 -93 -29 -181t-75 -152.5t-99.5 -111t-107.5 -67.5q-46 -18 -86 32q-22 26 -22 57zM470 -267q0 31 26 54q69 53 91.5 131t24.5 238q0 61 32 83.5t106 22.5q75 0 107 -22.5 t32 -83.5q0 -93 -29 -181t-75 -152.5t-99.5 -111t-107.5 -67.5q-46 -18 -86 32q-22 26 -22 57z" />
<glyph unicode="&#x2022;" horiz-adv-x="931" d="M111 653q0 148 104 251.5t252 103.5q147 0 250.5 -104t103.5 -251t-103.5 -250.5t-250.5 -103.5q-148 0 -252 103t-104 251z" />
<glyph unicode="&#x2026;" horiz-adv-x="1570" d="M121 88v119q0 59 27.5 80.5t97.5 21.5q71 0 99 -21.5t28 -80.5v-119q0 -59 -27.5 -80.5t-97.5 -21.5q-71 0 -99 21.5t-28 80.5zM639 88v119q0 59 27.5 80.5t97.5 21.5q71 0 99 -21.5t28 -80.5v-119q0 -59 -27.5 -80.5t-97.5 -21.5q-71 0 -99 21.5t-28 80.5zM1217 88v119 q0 59 27 80.5t97 21.5q71 0 99 -21.5t28 -80.5v-119q0 -59 -27.5 -80.5t-97.5 -21.5t-98 21.5t-28 80.5z" />
<glyph unicode="&#x202f;" horiz-adv-x="399" />
<glyph unicode="&#x2039;" horiz-adv-x="696" d="M119 541q-48 73 0 145l243 354q27 41 59 44t81 -27q50 -33 63 -61t-12 -70l-217 -312l217 -313q25 -42 12 -70t-63 -61q-49 -30 -81 -27t-59 43z" />
<glyph unicode="&#x203a;" horiz-adv-x="696" d="M131.5 231q-13.5 28 11.5 70l217 313l-217 312q-25 42 -11.5 70t63.5 61q49 30 80.5 27t58.5 -44l244 -354q48 -72 0 -145l-244 -355q-27 -40 -58.5 -43t-80.5 27q-50 33 -63.5 61z" />
<glyph unicode="&#x205f;" horiz-adv-x="498" />
<glyph unicode="&#x20ac;" d="M55 594q0 60 19 86.5t65 26.5h103v73h-103q-46 0 -65 25.5t-19 81.5q0 60 19 86t65 26h103v27q0 217 135 356.5t362 139.5q118 0 207 -22.5t146.5 -65.5t92.5 -92.5t60 -114.5q22 -58 -9 -89.5t-108 -47.5q-46 -14 -76 -8.5t-44 20t-29 47.5q-58 133 -227 133 q-105 0 -160 -67t-55 -179v-37h239q46 0 65 -26t19 -86q0 -107 -84 -107h-239v-73h239q46 0 65 -26.5t19 -86.5q0 -56 -19 -81.5t-65 -25.5h-239v-26q0 -112 55 -179t160 -67q169 0 227 133q15 33 29 47.5t44 20.5t76 -8q76 -16 107.5 -48t9.5 -90q-25 -65 -60 -114.5 t-92.5 -92.5t-146.5 -65.5t-207 -22.5q-227 0 -362 139.5t-135 356.5v16h-103q-46 0 -65 25.5t-19 81.5z" />
<glyph unicode="&#x2122;" horiz-adv-x="1179" d="M27 1446q0 28 9.5 40.5t33.5 12.5h389q24 0 32.5 -12t8.5 -41q0 -28 -8.5 -39.5t-32.5 -11.5h-137v-463q0 -28 -13.5 -38.5t-46.5 -10.5q-32 0 -45.5 10.5t-13.5 38.5v463h-133q-24 0 -33.5 12t-9.5 39zM547 926v522q0 25 17.5 38t60.5 13q51 0 71 -9.5t27 -39.5l76 -264 q31 -116 39 -193q4 67 41 195q4 13 33.5 113t45.5 151q7 28 27 37.5t66 9.5q77 0 77 -49v-524q0 -24 -12.5 -33.5t-42.5 -9.5q-28 0 -39.5 9.5t-11.5 33.5v286q0 115 4 164h-2l-131 -463q-5 -30 -57 -30q-33 0 -48.5 6t-21.5 24l-117 467h-2q6 -58 6 -151v-303 q0 -24 -13 -33.5t-42 -9.5q-27 0 -39 9.5t-12 33.5z" />
<glyph unicode="&#xe000;" horiz-adv-x="1136" d="M0 0v1137h1137v-1137h-1137z" />
</font>
</defs>
</svg>
